<?xml version="1.0" encoding="utf-8" standalone="no"?>
<!DOCTYPE svg PUBLIC "-//W3C//DTD SVG 1.1//EN"
  "http://www.w3.org/Graphics/SVG/1.1/DTD/svg11.dtd">
<svg xmlns:xlink="http://www.w3.org/1999/xlink" width="432pt" height="288pt" viewBox="0 0 432 288" xmlns="http://www.w3.org/2000/svg" version="1.1">
 <metadata>
  <rdf:RDF xmlns:dc="http://purl.org/dc/elements/1.1/" xmlns:cc="http://creativecommons.org/ns#" xmlns:rdf="http://www.w3.org/1999/02/22-rdf-syntax-ns#">
   <cc:Work>
    <dc:type rdf:resource="http://purl.org/dc/dcmitype/StillImage"/>
    <dc:date>2025-10-19T19:33:05.374933</dc:date>
    <dc:format>image/svg+xml</dc:format>
    <dc:creator>
     <cc:Agent>
      <dc:title>Matplotlib v3.10.7, https://matplotlib.org/</dc:title>
     </cc:Agent>
    </dc:creator>
   </cc:Work>
  </rdf:RDF>
 </metadata>
 <defs>
  <style type="text/css">*{stroke-linejoin: round; stroke-linecap: butt}</style>
 </defs>
 <g id="figure_1">
  <g id="patch_1">
   <path d="M 0 288 
L 432 288 
L 432 0 
L 0 0 
z
" style="fill: #ffffff"/>
  </g>
  <g id="axes_1">
   <g id="patch_2">
    <path d="M 56.334554 242.143 
L 421.2 242.143 
L 421.2 24.72 
L 56.334554 24.72 
z
" style="fill: #ffffff"/>
   </g>
   <g id="matplotlib.axis_1">
    <g id="xtick_1">
     <g id="line2d_1">
      <defs>
       <path id="med36652ab9" d="M 0 0 
L 0 3.5 
" style="stroke: #000000; stroke-width: 0.8"/>
      </defs>
      <g>
       <use xlink:href="#med36652ab9" x="72.919347" y="242.143" style="stroke: #000000; stroke-width: 0.8"/>
      </g>
     </g>
     <g id="text_1">
      <!-- $\mathdefault{10^{5}}$ -->
      <g transform="translate(64.119347 256.741438) scale(0.1 -0.1)">
       <defs>
        <path id="DejaVuSans-31" d="M 794 531 
L 1825 531 
L 1825 4091 
L 703 3866 
L 703 4441 
L 1819 4666 
L 2450 4666 
L 2450 531 
L 3481 531 
L 3481 0 
L 794 0 
L 794 531 
z
" transform="scale(0.015625)"/>
        <path id="DejaVuSans-30" d="M 2034 4250 
Q 1547 4250 1301 3770 
Q 1056 3291 1056 2328 
Q 1056 1369 1301 889 
Q 1547 409 2034 409 
Q 2525 409 2770 889 
Q 3016 1369 3016 2328 
Q 3016 3291 2770 3770 
Q 2525 4250 2034 4250 
z
M 2034 4750 
Q 2819 4750 3233 4129 
Q 3647 3509 3647 2328 
Q 3647 1150 3233 529 
Q 2819 -91 2034 -91 
Q 1250 -91 836 529 
Q 422 1150 422 2328 
Q 422 3509 836 4129 
Q 1250 4750 2034 4750 
z
" transform="scale(0.015625)"/>
        <path id="DejaVuSans-35" d="M 691 4666 
L 3169 4666 
L 3169 4134 
L 1269 4134 
L 1269 2991 
Q 1406 3038 1543 3061 
Q 1681 3084 1819 3084 
Q 2600 3084 3056 2656 
Q 3513 2228 3513 1497 
Q 3513 744 3044 326 
Q 2575 -91 1722 -91 
Q 1428 -91 1123 -41 
Q 819 9 494 109 
L 494 744 
Q 775 591 1075 516 
Q 1375 441 1709 441 
Q 2250 441 2565 725 
Q 2881 1009 2881 1497 
Q 2881 1984 2565 2268 
Q 2250 2553 1709 2553 
Q 1456 2553 1204 2497 
Q 953 2441 691 2322 
L 691 4666 
z
" transform="scale(0.015625)"/>
       </defs>
       <use xlink:href="#DejaVuSans-31" transform="translate(0 0.684375)"/>
       <use xlink:href="#DejaVuSans-30" transform="translate(63.623047 0.684375)"/>
       <use xlink:href="#DejaVuSans-35" transform="translate(128.203125 38.965625) scale(0.7)"/>
      </g>
     </g>
    </g>
    <g id="xtick_2">
     <g id="line2d_2">
      <g>
       <use xlink:href="#med36652ab9" x="404.615207" y="242.143" style="stroke: #000000; stroke-width: 0.8"/>
      </g>
     </g>
     <g id="text_2">
      <!-- $\mathdefault{10^{6}}$ -->
      <g transform="translate(395.815207 256.741438) scale(0.1 -0.1)">
       <defs>
        <path id="DejaVuSans-36" d="M 2113 2584 
Q 1688 2584 1439 2293 
Q 1191 2003 1191 1497 
Q 1191 994 1439 701 
Q 1688 409 2113 409 
Q 2538 409 2786 701 
Q 3034 994 3034 1497 
Q 3034 2003 2786 2293 
Q 2538 2584 2113 2584 
z
M 3366 4563 
L 3366 3988 
Q 3128 4100 2886 4159 
Q 2644 4219 2406 4219 
Q 1781 4219 1451 3797 
Q 1122 3375 1075 2522 
Q 1259 2794 1537 2939 
Q 1816 3084 2150 3084 
Q 2853 3084 3261 2657 
Q 3669 2231 3669 1497 
Q 3669 778 3244 343 
Q 2819 -91 2113 -91 
Q 1303 -91 875 529 
Q 447 1150 447 2328 
Q 447 3434 972 4092 
Q 1497 4750 2381 4750 
Q 2619 4750 2861 4703 
Q 3103 4656 3366 4563 
z
" transform="scale(0.015625)"/>
       </defs>
       <use xlink:href="#DejaVuSans-31" transform="translate(0 0.765625)"/>
       <use xlink:href="#DejaVuSans-30" transform="translate(63.623047 0.765625)"/>
       <use xlink:href="#DejaVuSans-36" transform="translate(128.203125 39.046875) scale(0.7)"/>
      </g>
     </g>
    </g>
    <g id="xtick_3">
     <g id="line2d_3">
      <defs>
       <path id="mccb5d04f19" d="M 0 0 
L 0 2 
" style="stroke: #000000; stroke-width: 0.6"/>
      </defs>
      <g>
       <use xlink:href="#mccb5d04f19" x="57.741777" y="242.143" style="stroke: #000000; stroke-width: 0.6"/>
      </g>
     </g>
    </g>
    <g id="xtick_4">
     <g id="line2d_4">
      <g>
       <use xlink:href="#mccb5d04f19" x="172.76975" y="242.143" style="stroke: #000000; stroke-width: 0.6"/>
      </g>
     </g>
    </g>
    <g id="xtick_5">
     <g id="line2d_5">
      <g>
       <use xlink:href="#mccb5d04f19" x="231.178492" y="242.143" style="stroke: #000000; stroke-width: 0.6"/>
      </g>
     </g>
    </g>
    <g id="xtick_6">
     <g id="line2d_6">
      <g>
       <use xlink:href="#mccb5d04f19" x="272.620154" y="242.143" style="stroke: #000000; stroke-width: 0.6"/>
      </g>
     </g>
    </g>
    <g id="xtick_7">
     <g id="line2d_7">
      <g>
       <use xlink:href="#mccb5d04f19" x="304.764804" y="242.143" style="stroke: #000000; stroke-width: 0.6"/>
      </g>
     </g>
    </g>
    <g id="xtick_8">
     <g id="line2d_8">
      <g>
       <use xlink:href="#mccb5d04f19" x="331.028895" y="242.143" style="stroke: #000000; stroke-width: 0.6"/>
      </g>
     </g>
    </g>
    <g id="xtick_9">
     <g id="line2d_9">
      <g>
       <use xlink:href="#mccb5d04f19" x="353.234868" y="242.143" style="stroke: #000000; stroke-width: 0.6"/>
      </g>
     </g>
    </g>
    <g id="xtick_10">
     <g id="line2d_10">
      <g>
       <use xlink:href="#mccb5d04f19" x="372.470557" y="242.143" style="stroke: #000000; stroke-width: 0.6"/>
      </g>
     </g>
    </g>
    <g id="xtick_11">
     <g id="line2d_11">
      <g>
       <use xlink:href="#mccb5d04f19" x="389.437637" y="242.143" style="stroke: #000000; stroke-width: 0.6"/>
      </g>
     </g>
    </g>
    <g id="text_3">
     <!-- 数据规模 (n) -->
     <g transform="translate(211.217277 270.89925) scale(0.1 -0.1)">
      <defs>
       <path id="NotoSansCJKjp-Regular-6570" d="M 2803 5254 
C 2688 4998 2483 4627 2317 4403 
L 2643 4243 
C 2816 4454 3027 4781 3219 5075 
L 2803 5254 
z
M 531 5075 
C 704 4806 870 4454 928 4230 
L 1312 4397 
C 1248 4627 1075 4973 890 5222 
L 531 5075 
z
M 4026 5382 
C 3846 4243 3507 3162 2970 2490 
C 3078 2413 3283 2246 3360 2163 
C 3533 2394 3693 2669 3827 2970 
C 3974 2310 4160 1709 4410 1184 
C 4090 698 3667 314 3110 19 
C 2912 166 2656 326 2374 480 
C 2598 774 2746 1126 2829 1562 
L 3398 1562 
L 3398 1958 
L 1677 1958 
L 1894 2413 
L 1779 2438 
L 2061 2438 
L 2061 3398 
C 2374 3168 2771 2854 2938 2701 
L 3206 3046 
C 3034 3174 2336 3616 2061 3776 
L 2061 3802 
L 3373 3802 
L 3373 4198 
L 2061 4198 
L 2061 5382 
L 1613 5382 
L 1613 4198 
L 288 4198 
L 288 3802 
L 1485 3802 
C 1171 3379 678 2982 218 2784 
C 314 2694 422 2528 480 2419 
C 870 2637 1293 2989 1613 3373 
L 1613 2477 
L 1440 2515 
L 1178 1958 
L 250 1958 
L 250 1562 
L 979 1562 
C 806 1222 627 896 486 653 
L 909 506 
L 1005 678 
C 1222 589 1434 493 1638 384 
C 1306 147 858 -13 269 -109 
C 352 -211 448 -384 480 -512 
C 1171 -365 1683 -154 2061 160 
C 2355 -13 2611 -186 2810 -352 
L 2963 -192 
C 3046 -301 3136 -448 3174 -531 
C 3802 -205 4288 205 4666 710 
C 4979 192 5370 -224 5862 -512 
C 5939 -378 6093 -192 6208 -96 
C 5690 173 5280 614 4960 1165 
C 5350 1856 5594 2707 5754 3750 
L 6144 3750 
L 6144 4198 
L 4262 4198 
C 4358 4557 4442 4928 4506 5312 
L 4026 5382 
z
M 1478 1562 
L 2368 1562 
C 2285 1216 2157 928 1965 698 
C 1715 819 1459 934 1197 1030 
L 1478 1562 
z
M 4134 3750 
L 5254 3750 
C 5139 2950 4966 2266 4698 1696 
C 4435 2298 4250 3002 4134 3750 
z
" transform="scale(0.015625)"/>
       <path id="NotoSansCJKjp-Regular-636e" d="M 3098 1523 
L 3098 -518 
L 3520 -518 
L 3520 -256 
L 5491 -256 
L 5491 -493 
L 5933 -493 
L 5933 1523 
L 4698 1523 
L 4698 2317 
L 6131 2317 
L 6131 2733 
L 4698 2733 
L 4698 3437 
L 5907 3437 
L 5907 5094 
L 2528 5094 
L 2528 3162 
C 2528 2144 2470 749 1805 -237 
C 1914 -288 2112 -429 2202 -506 
C 2733 275 2912 1363 2970 2317 
L 4243 2317 
L 4243 1523 
L 3098 1523 
z
M 2995 4678 
L 5446 4678 
L 5446 3859 
L 2995 3859 
L 2995 4678 
z
M 2995 3437 
L 4243 3437 
L 4243 2733 
L 2989 2733 
L 2995 3162 
L 2995 3437 
z
M 3520 141 
L 3520 1114 
L 5491 1114 
L 5491 141 
L 3520 141 
z
M 1069 5370 
L 1069 4083 
L 269 4083 
L 269 3635 
L 1069 3635 
L 1069 2234 
C 736 2131 429 2042 186 1978 
L 314 1504 
L 1069 1747 
L 1069 90 
C 1069 0 1037 -26 960 -26 
C 883 -32 634 -32 358 -26 
C 416 -154 480 -352 493 -467 
C 896 -474 1146 -454 1299 -378 
C 1459 -307 1517 -173 1517 90 
L 1517 1894 
L 2253 2138 
L 2182 2579 
L 1517 2368 
L 1517 3635 
L 2240 3635 
L 2240 4083 
L 1517 4083 
L 1517 5370 
L 1069 5370 
z
" transform="scale(0.015625)"/>
       <path id="NotoSansCJKjp-Regular-89c4" d="M 3046 5062 
L 3046 1658 
L 3507 1658 
L 3507 4640 
L 5274 4640 
L 5274 1658 
L 5754 1658 
L 5754 5062 
L 3046 5062 
z
M 1331 5312 
L 1331 4314 
L 416 4314 
L 416 3866 
L 1331 3866 
L 1331 3232 
L 1325 2829 
L 275 2829 
L 275 2374 
L 1306 2374 
C 1242 1504 1011 531 230 -109 
C 346 -192 506 -352 576 -448 
C 1184 96 1491 806 1638 1530 
C 1920 1178 2298 685 2451 429 
L 2784 787 
C 2630 986 1984 1760 1722 2022 
L 1760 2374 
L 2739 2374 
L 2739 2829 
L 1779 2829 
L 1786 3238 
L 1786 3866 
L 2662 3866 
L 2662 4314 
L 1786 4314 
L 1786 5312 
L 1331 5312 
z
M 4173 4096 
L 4173 2867 
C 4173 1875 3968 666 2355 -160 
C 2451 -230 2598 -410 2656 -506 
C 3635 0 4141 691 4390 1389 
L 4390 173 
C 4390 -256 4550 -378 4966 -378 
L 5485 -378 
C 6010 -378 6086 -122 6138 877 
C 6022 902 5862 973 5747 1062 
C 5722 173 5690 6 5485 6 
L 5030 6 
C 4870 6 4819 51 4819 224 
L 4819 1856 
L 4525 1856 
C 4595 2202 4621 2547 4621 2861 
L 4621 4096 
L 4173 4096 
z
" transform="scale(0.015625)"/>
       <path id="NotoSansCJKjp-Regular-6a21" d="M 3021 2669 
L 5248 2669 
L 5248 2208 
L 3021 2208 
L 3021 2669 
z
M 3021 3469 
L 5248 3469 
L 5248 3021 
L 3021 3021 
L 3021 3469 
z
M 4685 5376 
L 4685 4845 
L 3699 4845 
L 3699 5376 
L 3245 5376 
L 3245 4845 
L 2304 4845 
L 2304 4435 
L 3245 4435 
L 3245 3955 
L 3699 3955 
L 3699 4435 
L 4685 4435 
L 4685 3955 
L 5152 3955 
L 5152 4435 
L 6048 4435 
L 6048 4845 
L 5152 4845 
L 5152 5376 
L 4685 5376 
z
M 2573 3834 
L 2573 1850 
L 3878 1850 
C 3853 1658 3827 1485 3782 1318 
L 2176 1318 
L 2176 909 
L 3642 909 
C 3398 416 2938 77 1997 -128 
C 2086 -224 2208 -403 2253 -512 
C 3366 -243 3885 218 4141 896 
C 4461 192 5056 -288 5888 -512 
C 5952 -390 6080 -211 6182 -115 
C 5459 38 4909 390 4602 909 
L 6035 909 
L 6035 1318 
L 4262 1318 
C 4294 1485 4326 1664 4346 1850 
L 5715 1850 
L 5715 3834 
L 2573 3834 
z
M 1120 5376 
L 1120 4141 
L 320 4141 
L 320 3693 
L 1120 3693 
L 1120 3686 
C 947 2816 576 1798 205 1261 
C 288 1146 403 934 461 794 
C 704 1171 934 1754 1120 2381 
L 1120 -506 
L 1581 -506 
L 1581 2790 
C 1754 2451 1952 2042 2035 1830 
L 2342 2176 
C 2234 2374 1747 3174 1581 3424 
L 1581 3693 
L 2240 3693 
L 2240 4141 
L 1581 4141 
L 1581 5376 
L 1120 5376 
z
" transform="scale(0.015625)"/>
       <path id="NotoSansCJKjp-Regular-20" transform="scale(0.015625)"/>
       <path id="NotoSansCJKjp-Regular-28" d="M 1530 -1254 
L 1888 -1094 
C 1338 -186 1075 902 1075 1990 
C 1075 3072 1338 4154 1888 5069 
L 1530 5235 
C 941 4275 589 3245 589 1990 
C 589 730 941 -301 1530 -1254 
z
" transform="scale(0.015625)"/>
       <path id="NotoSansCJKjp-Regular-6e" d="M 589 0 
L 1178 0 
L 1178 2522 
C 1523 2874 1766 3053 2125 3053 
C 2586 3053 2784 2778 2784 2125 
L 2784 0 
L 3366 0 
L 3366 2202 
C 3366 3085 3034 3565 2304 3565 
C 1830 3565 1466 3302 1139 2970 
L 1126 2970 
L 1069 3475 
L 589 3475 
L 589 0 
z
" transform="scale(0.015625)"/>
       <path id="NotoSansCJKjp-Regular-29" d="M 634 -1254 
C 1222 -301 1574 730 1574 1990 
C 1574 3245 1222 4275 634 5235 
L 269 5069 
C 819 4154 1094 3072 1094 1990 
C 1094 902 819 -186 269 -1094 
L 634 -1254 
z
" transform="scale(0.015625)"/>
      </defs>
      <use xlink:href="#NotoSansCJKjp-Regular-6570"/>
      <use xlink:href="#NotoSansCJKjp-Regular-636e" transform="translate(99.999985 0)"/>
      <use xlink:href="#NotoSansCJKjp-Regular-89c4" transform="translate(199.999969 0)"/>
      <use xlink:href="#NotoSansCJKjp-Regular-6a21" transform="translate(299.999954 0)"/>
      <use xlink:href="#NotoSansCJKjp-Regular-20" transform="translate(399.999939 0)"/>
      <use xlink:href="#NotoSansCJKjp-Regular-28" transform="translate(422.399933 0)"/>
      <use xlink:href="#NotoSansCJKjp-Regular-6e" transform="translate(456.199921 0)"/>
      <use xlink:href="#NotoSansCJKjp-Regular-29" transform="translate(517.199905 0)"/>
     </g>
    </g>
   </g>
   <g id="matplotlib.axis_2">
    <g id="ytick_1">
     <g id="line2d_12">
      <defs>
       <path id="mb7b8018e31" d="M 0 0 
L -3.5 0 
" style="stroke: #000000; stroke-width: 0.8"/>
      </defs>
      <g>
       <use xlink:href="#mb7b8018e31" x="56.334554" y="169.296592" style="stroke: #000000; stroke-width: 0.8"/>
      </g>
     </g>
     <g id="text_4">
      <!-- $\mathdefault{10^{-2}}$ -->
      <g transform="translate(25.834554 173.095811) scale(0.1 -0.1)">
       <defs>
        <path id="DejaVuSans-2212" d="M 678 2272 
L 4684 2272 
L 4684 1741 
L 678 1741 
L 678 2272 
z
" transform="scale(0.015625)"/>
        <path id="DejaVuSans-32" d="M 1228 531 
L 3431 531 
L 3431 0 
L 469 0 
L 469 531 
Q 828 903 1448 1529 
Q 2069 2156 2228 2338 
Q 2531 2678 2651 2914 
Q 2772 3150 2772 3378 
Q 2772 3750 2511 3984 
Q 2250 4219 1831 4219 
Q 1534 4219 1204 4116 
Q 875 4013 500 3803 
L 500 4441 
Q 881 4594 1212 4672 
Q 1544 4750 1819 4750 
Q 2544 4750 2975 4387 
Q 3406 4025 3406 3419 
Q 3406 3131 3298 2873 
Q 3191 2616 2906 2266 
Q 2828 2175 2409 1742 
Q 1991 1309 1228 531 
z
" transform="scale(0.015625)"/>
       </defs>
       <use xlink:href="#DejaVuSans-31" transform="translate(0 0.765625)"/>
       <use xlink:href="#DejaVuSans-30" transform="translate(63.623047 0.765625)"/>
       <use xlink:href="#DejaVuSans-2212" transform="translate(128.203125 39.046875) scale(0.7)"/>
       <use xlink:href="#DejaVuSans-32" transform="translate(186.855469 39.046875) scale(0.7)"/>
      </g>
     </g>
    </g>
    <g id="ytick_2">
     <g id="line2d_13">
      <defs>
       <path id="mb42e2827a6" d="M 0 0 
L -2 0 
" style="stroke: #000000; stroke-width: 0.6"/>
      </defs>
      <g>
       <use xlink:href="#mb42e2827a6" x="56.334554" y="229.953121" style="stroke: #000000; stroke-width: 0.6"/>
      </g>
     </g>
    </g>
    <g id="ytick_3">
     <g id="line2d_14">
      <g>
       <use xlink:href="#mb42e2827a6" x="56.334554" y="215.181485" style="stroke: #000000; stroke-width: 0.6"/>
      </g>
     </g>
    </g>
    <g id="ytick_4">
     <g id="line2d_15">
      <g>
       <use xlink:href="#mb42e2827a6" x="56.334554" y="203.112179" style="stroke: #000000; stroke-width: 0.6"/>
      </g>
     </g>
    </g>
    <g id="ytick_5">
     <g id="line2d_16">
      <g>
       <use xlink:href="#mb42e2827a6" x="56.334554" y="192.907727" style="stroke: #000000; stroke-width: 0.6"/>
      </g>
     </g>
    </g>
    <g id="ytick_6">
     <g id="line2d_17">
      <g>
       <use xlink:href="#mb42e2827a6" x="56.334554" y="184.068228" style="stroke: #000000; stroke-width: 0.6"/>
      </g>
     </g>
    </g>
    <g id="ytick_7">
     <g id="line2d_18">
      <g>
       <use xlink:href="#mb42e2827a6" x="56.334554" y="176.271238" style="stroke: #000000; stroke-width: 0.6"/>
      </g>
     </g>
    </g>
    <g id="ytick_8">
     <g id="line2d_19">
      <g>
       <use xlink:href="#mb42e2827a6" x="56.334554" y="123.4117" style="stroke: #000000; stroke-width: 0.6"/>
      </g>
     </g>
    </g>
    <g id="ytick_9">
     <g id="line2d_20">
      <g>
       <use xlink:href="#mb42e2827a6" x="56.334554" y="96.570758" style="stroke: #000000; stroke-width: 0.6"/>
      </g>
     </g>
    </g>
    <g id="ytick_10">
     <g id="line2d_21">
      <g>
       <use xlink:href="#mb42e2827a6" x="56.334554" y="77.526807" style="stroke: #000000; stroke-width: 0.6"/>
      </g>
     </g>
    </g>
    <g id="ytick_11">
     <g id="line2d_22">
      <g>
       <use xlink:href="#mb42e2827a6" x="56.334554" y="62.755171" style="stroke: #000000; stroke-width: 0.6"/>
      </g>
     </g>
    </g>
    <g id="ytick_12">
     <g id="line2d_23">
      <g>
       <use xlink:href="#mb42e2827a6" x="56.334554" y="50.685865" style="stroke: #000000; stroke-width: 0.6"/>
      </g>
     </g>
    </g>
    <g id="ytick_13">
     <g id="line2d_24">
      <g>
       <use xlink:href="#mb42e2827a6" x="56.334554" y="40.481413" style="stroke: #000000; stroke-width: 0.6"/>
      </g>
     </g>
    </g>
    <g id="ytick_14">
     <g id="line2d_25">
      <g>
       <use xlink:href="#mb42e2827a6" x="56.334554" y="31.641914" style="stroke: #000000; stroke-width: 0.6"/>
      </g>
     </g>
    </g>
    <g id="text_5">
     <!-- 运行时间 (秒) -->
     <g transform="translate(19.543929 162.9315) rotate(-90) scale(0.1 -0.1)">
      <defs>
       <path id="NotoSansCJKjp-Regular-8fd0" d="M 576 4998 
C 960 4787 1408 4448 1619 4198 
L 1958 4525 
C 1741 4774 1280 5094 896 5299 
L 576 4998 
z
M 326 3699 
C 730 3494 1210 3174 1434 2925 
L 1766 3270 
C 1530 3514 1043 3821 640 4013 
L 326 3699 
z
M 2458 5011 
L 2458 4557 
L 5677 4557 
L 5677 5011 
L 2458 5011 
z
M 1606 2400 
L 294 2400 
L 294 1952 
L 1139 1952 
L 1139 749 
C 832 480 493 218 211 19 
L 461 -461 
C 794 -179 1107 96 1402 371 
C 1811 -134 2394 -358 3238 -390 
C 3955 -416 5299 -403 6010 -371 
C 6035 -230 6112 -6 6170 109 
C 5402 58 3942 38 3232 64 
C 2483 96 1920 314 1606 781 
L 1606 2400 
z
M 4506 2490 
C 4749 2195 4998 1843 5216 1498 
L 3149 1338 
C 3392 1837 3667 2496 3885 3059 
L 6144 3059 
L 6144 3514 
L 2042 3514 
L 2042 3059 
L 3322 3059 
C 3155 2490 2893 1792 2662 1299 
L 2093 1261 
L 2170 781 
C 3021 858 4262 966 5453 1082 
C 5555 890 5638 710 5696 557 
L 6118 787 
C 5914 1312 5382 2099 4890 2682 
L 4506 2490 
z
" transform="scale(0.015625)"/>
       <path id="NotoSansCJKjp-Regular-884c" d="M 2784 4992 
L 2784 4531 
L 5933 4531 
L 5933 4992 
L 2784 4992 
z
M 1709 5382 
C 1382 4915 762 4346 224 3981 
C 307 3891 442 3706 506 3597 
C 1082 4006 1741 4634 2170 5190 
L 1709 5382 
z
M 2502 3226 
L 2502 2765 
L 4659 2765 
L 4659 109 
C 4659 6 4614 -26 4493 -32 
C 4378 -38 3942 -38 3488 -19 
C 3558 -160 3629 -358 3648 -493 
C 4275 -493 4640 -493 4858 -422 
C 5069 -339 5146 -192 5146 102 
L 5146 2765 
L 6112 2765 
L 6112 3226 
L 2502 3226 
z
M 1965 4006 
C 1523 3277 819 2534 160 2061 
C 256 1965 429 1754 499 1658 
C 736 1850 986 2080 1229 2330 
L 1229 -531 
L 1702 -531 
L 1702 2854 
C 1971 3174 2214 3507 2419 3840 
L 1965 4006 
z
" transform="scale(0.015625)"/>
       <path id="NotoSansCJKjp-Regular-65f6" d="M 3034 2893 
C 3373 2400 3808 1722 4013 1331 
L 4435 1574 
C 4218 1965 3776 2618 3430 3104 
L 3034 2893 
z
M 2074 2573 
L 2074 1114 
L 979 1114 
L 979 2573 
L 2074 2573 
z
M 2074 3002 
L 979 3002 
L 979 4403 
L 2074 4403 
L 2074 3002 
z
M 518 4838 
L 518 160 
L 979 160 
L 979 678 
L 2522 678 
L 2522 4838 
L 518 4838 
z
M 4890 5344 
L 4890 4096 
L 2816 4096 
L 2816 3622 
L 4890 3622 
L 4890 211 
C 4890 83 4838 38 4710 38 
C 4570 26 4096 26 3597 45 
C 3667 -96 3744 -314 3776 -448 
C 4416 -448 4826 -442 5056 -358 
C 5286 -282 5376 -141 5376 211 
L 5376 3622 
L 6157 3622 
L 6157 4096 
L 5376 4096 
L 5376 5344 
L 4890 5344 
z
" transform="scale(0.015625)"/>
       <path id="NotoSansCJKjp-Regular-95f4" d="M 582 3936 
L 582 -512 
L 1075 -512 
L 1075 3936 
L 582 3936 
z
M 678 5062 
C 973 4781 1306 4378 1453 4122 
L 1850 4378 
C 1696 4646 1350 5024 1050 5293 
L 678 5062 
z
M 2426 1888 
L 3962 1888 
L 3962 1024 
L 2426 1024 
L 2426 1888 
z
M 2426 3142 
L 3962 3142 
L 3962 2291 
L 2426 2291 
L 2426 3142 
z
M 1990 3546 
L 1990 627 
L 4416 627 
L 4416 3546 
L 1990 3546 
z
M 2253 5018 
L 2253 4563 
L 5350 4563 
L 5350 70 
C 5350 -13 5325 -38 5242 -45 
C 5158 -45 4896 -51 4627 -38 
C 4691 -160 4755 -365 4781 -480 
C 5171 -480 5446 -480 5619 -403 
C 5786 -320 5843 -198 5843 70 
L 5843 5018 
L 2253 5018 
z
" transform="scale(0.015625)"/>
       <path id="NotoSansCJKjp-Regular-79d2" d="M 4160 5370 
L 4160 1997 
C 4160 1920 4128 1894 4045 1888 
C 3962 1888 3693 1888 3392 1894 
C 3462 1766 3533 1562 3558 1434 
C 3987 1427 4243 1446 4410 1523 
C 4582 1606 4640 1741 4640 1990 
L 4640 5370 
L 4160 5370 
z
M 3206 4307 
C 3072 3590 2842 2880 2502 2413 
C 2624 2362 2829 2246 2918 2182 
C 3238 2675 3507 3450 3661 4224 
L 3206 4307 
z
M 5037 4205 
C 5370 3629 5664 2848 5760 2342 
L 6202 2490 
C 6093 3002 5792 3763 5446 4346 
L 5037 4205 
z
M 5331 2227 
C 4947 947 4064 243 2496 -70 
C 2598 -186 2714 -365 2765 -506 
C 4429 -109 5370 685 5792 2106 
L 5331 2227 
z
M 2310 5286 
C 1837 5069 992 4883 275 4762 
C 333 4659 397 4499 416 4397 
C 717 4435 1037 4493 1357 4557 
L 1357 3571 
L 314 3571 
L 314 3123 
L 1293 3123 
C 1037 2387 595 1555 179 1101 
C 262 986 378 794 429 659 
C 755 1056 1094 1690 1357 2336 
L 1357 -499 
L 1830 -499 
L 1830 2259 
C 2048 1990 2304 1645 2413 1466 
L 2701 1843 
C 2573 1990 2016 2566 1830 2726 
L 1830 3123 
L 2630 3123 
L 2630 3571 
L 1830 3571 
L 1830 4666 
C 2131 4736 2413 4819 2643 4915 
L 2310 5286 
z
" transform="scale(0.015625)"/>
      </defs>
      <use xlink:href="#NotoSansCJKjp-Regular-8fd0"/>
      <use xlink:href="#NotoSansCJKjp-Regular-884c" transform="translate(99.999985 0)"/>
      <use xlink:href="#NotoSansCJKjp-Regular-65f6" transform="translate(199.999969 0)"/>
      <use xlink:href="#NotoSansCJKjp-Regular-95f4" transform="translate(299.999954 0)"/>
      <use xlink:href="#NotoSansCJKjp-Regular-20" transform="translate(399.999939 0)"/>
      <use xlink:href="#NotoSansCJKjp-Regular-28" transform="translate(422.399933 0)"/>
      <use xlink:href="#NotoSansCJKjp-Regular-79d2" transform="translate(456.199921 0)"/>
      <use xlink:href="#NotoSansCJKjp-Regular-29" transform="translate(556.199905 0)"/>
     </g>
    </g>
   </g>
   <g id="LineCollection_1">
    <path clip-path="url(#p1f29892583)" style="fill: none; stroke: #1f77b4; stroke-width: 1.5"/>
    <path clip-path="url(#p1f29892583)" style="fill: none; stroke: #1f77b4; stroke-width: 1.5"/>
    <path clip-path="url(#p1f29892583)" style="fill: none; stroke: #1f77b4; stroke-width: 1.5"/>
   </g>
   <g id="line2d_26">
    <defs>
     <path id="m9957a4a7cb" d="M 3 0 
L -3 -0 
" style="stroke: #1f77b4"/>
    </defs>
    <g clip-path="url(#p1f29892583)"/>
   </g>
   <g id="line2d_27">
    <g clip-path="url(#p1f29892583)"/>
   </g>
   <g id="LineCollection_2">
    <path d="M 72.919347 203.352643 
L 72.919347 194.006648 
" clip-path="url(#p1f29892583)" style="fill: none; stroke: #ff7f0e; stroke-width: 1.5"/>
    <path d="M 231.178492 131.005592 
L 231.178492 114.834961 
" clip-path="url(#p1f29892583)" style="fill: none; stroke: #ff7f0e; stroke-width: 1.5"/>
    <path d="M 404.615207 43.467852 
L 404.615207 35.085529 
" clip-path="url(#p1f29892583)" style="fill: none; stroke: #ff7f0e; stroke-width: 1.5"/>
   </g>
   <g id="line2d_28">
    <defs>
     <path id="m05141bb073" d="M 3 0 
L -3 -0 
" style="stroke: #ff7f0e"/>
    </defs>
    <g clip-path="url(#p1f29892583)">
     <use xlink:href="#m05141bb073" x="72.919347" y="203.352643" style="fill: #ff7f0e; stroke: #ff7f0e"/>
     <use xlink:href="#m05141bb073" x="231.178492" y="131.005592" style="fill: #ff7f0e; stroke: #ff7f0e"/>
     <use xlink:href="#m05141bb073" x="404.615207" y="43.467852" style="fill: #ff7f0e; stroke: #ff7f0e"/>
    </g>
   </g>
   <g id="line2d_29">
    <g clip-path="url(#p1f29892583)">
     <use xlink:href="#m05141bb073" x="72.919347" y="194.006648" style="fill: #ff7f0e; stroke: #ff7f0e"/>
     <use xlink:href="#m05141bb073" x="231.178492" y="114.834961" style="fill: #ff7f0e; stroke: #ff7f0e"/>
     <use xlink:href="#m05141bb073" x="404.615207" y="35.085529" style="fill: #ff7f0e; stroke: #ff7f0e"/>
    </g>
   </g>
   <g id="LineCollection_3">
    <path d="M 72.919347 203.976977 
L 72.919347 195.877821 
" clip-path="url(#p1f29892583)" style="fill: none; stroke: #2ca02c; stroke-width: 1.5"/>
    <path d="M 231.178492 124.191996 
L 231.178492 118.595402 
" clip-path="url(#p1f29892583)" style="fill: none; stroke: #2ca02c; stroke-width: 1.5"/>
    <path d="M 404.615207 40.008887 
L 404.615207 34.602864 
" clip-path="url(#p1f29892583)" style="fill: none; stroke: #2ca02c; stroke-width: 1.5"/>
   </g>
   <g id="line2d_30">
    <defs>
     <path id="m3c37344e5f" d="M 3 0 
L -3 -0 
" style="stroke: #2ca02c"/>
    </defs>
    <g clip-path="url(#p1f29892583)">
     <use xlink:href="#m3c37344e5f" x="72.919347" y="203.976977" style="fill: #2ca02c; stroke: #2ca02c"/>
     <use xlink:href="#m3c37344e5f" x="231.178492" y="124.191996" style="fill: #2ca02c; stroke: #2ca02c"/>
     <use xlink:href="#m3c37344e5f" x="404.615207" y="40.008887" style="fill: #2ca02c; stroke: #2ca02c"/>
    </g>
   </g>
   <g id="line2d_31">
    <g clip-path="url(#p1f29892583)">
     <use xlink:href="#m3c37344e5f" x="72.919347" y="195.877821" style="fill: #2ca02c; stroke: #2ca02c"/>
     <use xlink:href="#m3c37344e5f" x="231.178492" y="118.595402" style="fill: #2ca02c; stroke: #2ca02c"/>
     <use xlink:href="#m3c37344e5f" x="404.615207" y="34.602864" style="fill: #2ca02c; stroke: #2ca02c"/>
    </g>
   </g>
   <g id="line2d_32">
    <path d="M 72.919347 232.260136 
L 231.178492 157.70897 
L 404.615207 75.687473 
" clip-path="url(#p1f29892583)" style="fill: none; stroke: #1f77b4; stroke-width: 1.5; stroke-linecap: square"/>
    <defs>
     <path id="mcdf8eb3b6a" d="M 0 3 
C 0.795609 3 1.55874 2.683901 2.12132 2.12132 
C 2.683901 1.55874 3 0.795609 3 0 
C 3 -0.795609 2.683901 -1.55874 2.12132 -2.12132 
C 1.55874 -2.683901 0.795609 -3 0 -3 
C -0.795609 -3 -1.55874 -2.683901 -2.12132 -2.12132 
C -2.683901 -1.55874 -3 -0.795609 -3 0 
C -3 0.795609 -2.683901 1.55874 -2.12132 2.12132 
C -1.55874 2.683901 -0.795609 3 0 3 
z
" style="stroke: #1f77b4"/>
    </defs>
    <g clip-path="url(#p1f29892583)">
     <use xlink:href="#mcdf8eb3b6a" x="72.919347" y="232.260136" style="fill: #1f77b4; stroke: #1f77b4"/>
     <use xlink:href="#mcdf8eb3b6a" x="231.178492" y="157.70897" style="fill: #1f77b4; stroke: #1f77b4"/>
     <use xlink:href="#mcdf8eb3b6a" x="404.615207" y="75.687473" style="fill: #1f77b4; stroke: #1f77b4"/>
    </g>
   </g>
   <g id="line2d_33">
    <path d="M 72.919347 198.514846 
L 231.178492 122.427735 
L 404.615207 39.144102 
" clip-path="url(#p1f29892583)" style="fill: none; stroke: #ff7f0e; stroke-width: 1.5; stroke-linecap: square"/>
    <defs>
     <path id="mf1395d119a" d="M 0 3 
C 0.795609 3 1.55874 2.683901 2.12132 2.12132 
C 2.683901 1.55874 3 0.795609 3 0 
C 3 -0.795609 2.683901 -1.55874 2.12132 -2.12132 
C 1.55874 -2.683901 0.795609 -3 0 -3 
C -0.795609 -3 -1.55874 -2.683901 -2.12132 -2.12132 
C -2.683901 -1.55874 -3 -0.795609 -3 0 
C -3 0.795609 -2.683901 1.55874 -2.12132 2.12132 
C -1.55874 2.683901 -0.795609 3 0 3 
z
" style="stroke: #ff7f0e"/>
    </defs>
    <g clip-path="url(#p1f29892583)">
     <use xlink:href="#mf1395d119a" x="72.919347" y="198.514846" style="fill: #ff7f0e; stroke: #ff7f0e"/>
     <use xlink:href="#mf1395d119a" x="231.178492" y="122.427735" style="fill: #ff7f0e; stroke: #ff7f0e"/>
     <use xlink:href="#mf1395d119a" x="404.615207" y="39.144102" style="fill: #ff7f0e; stroke: #ff7f0e"/>
    </g>
   </g>
   <g id="line2d_34">
    <path d="M 72.919347 199.803612 
L 231.178492 121.334572 
L 404.615207 37.250706 
" clip-path="url(#p1f29892583)" style="fill: none; stroke: #2ca02c; stroke-width: 1.5; stroke-linecap: square"/>
    <defs>
     <path id="m643ec32a7b" d="M 0 3 
C 0.795609 3 1.55874 2.683901 2.12132 2.12132 
C 2.683901 1.55874 3 0.795609 3 0 
C 3 -0.795609 2.683901 -1.55874 2.12132 -2.12132 
C 1.55874 -2.683901 0.795609 -3 0 -3 
C -0.795609 -3 -1.55874 -2.683901 -2.12132 -2.12132 
C -2.683901 -1.55874 -3 -0.795609 -3 0 
C -3 0.795609 -2.683901 1.55874 -2.12132 2.12132 
C -1.55874 2.683901 -0.795609 3 0 3 
z
" style="stroke: #2ca02c"/>
    </defs>
    <g clip-path="url(#p1f29892583)">
     <use xlink:href="#m643ec32a7b" x="72.919347" y="199.803612" style="fill: #2ca02c; stroke: #2ca02c"/>
     <use xlink:href="#m643ec32a7b" x="231.178492" y="121.334572" style="fill: #2ca02c; stroke: #2ca02c"/>
     <use xlink:href="#m643ec32a7b" x="404.615207" y="37.250706" style="fill: #2ca02c; stroke: #2ca02c"/>
    </g>
   </g>
   <g id="patch_3">
    <path d="M 56.334554 242.143 
L 56.334554 24.72 
" style="fill: none; stroke: #000000; stroke-width: 0.8; stroke-linejoin: miter; stroke-linecap: square"/>
   </g>
   <g id="patch_4">
    <path d="M 421.2 242.143 
L 421.2 24.72 
" style="fill: none; stroke: #000000; stroke-width: 0.8; stroke-linejoin: miter; stroke-linecap: square"/>
   </g>
   <g id="patch_5">
    <path d="M 56.334554 242.143 
L 421.2 242.143 
" style="fill: none; stroke: #000000; stroke-width: 0.8; stroke-linejoin: miter; stroke-linecap: square"/>
   </g>
   <g id="patch_6">
    <path d="M 56.334554 24.72 
L 421.2 24.72 
" style="fill: none; stroke: #000000; stroke-width: 0.8; stroke-linejoin: miter; stroke-linecap: square"/>
   </g>
   <g id="text_6">
    <!-- 不同算法在 -O3 下的性能对比 -->
    <g transform="translate(173.306339 18.72) scale(0.1 -0.1)">
     <defs>
      <path id="NotoSansCJKjp-Regular-4e0d" d="M 3578 3059 
C 4339 2547 5299 1792 5754 1299 
L 6144 1670 
C 5664 2163 4691 2880 3936 3366 
L 3578 3059 
z
M 442 4928 
L 442 4435 
L 3290 4435 
C 2656 3341 1555 2259 282 1632 
C 384 1523 531 1331 608 1210 
C 1498 1677 2291 2336 2938 3078 
L 2938 -499 
L 3456 -499 
L 3456 3738 
C 3622 3962 3770 4198 3904 4435 
L 5958 4435 
L 5958 4928 
L 442 4928 
z
" transform="scale(0.015625)"/>
      <path id="NotoSansCJKjp-Regular-540c" d="M 1587 3917 
L 1587 3501 
L 4838 3501 
L 4838 3917 
L 1587 3917 
z
M 2355 2419 
L 4045 2419 
L 4045 1203 
L 2355 1203 
L 2355 2419 
z
M 1914 2829 
L 1914 326 
L 2355 326 
L 2355 794 
L 4493 794 
L 4493 2829 
L 1914 2829 
z
M 563 5043 
L 563 -525 
L 1030 -525 
L 1030 4589 
L 5376 4589 
L 5376 102 
C 5376 -13 5338 -51 5222 -58 
C 5114 -58 4742 -64 4339 -51 
C 4416 -173 4486 -390 4512 -518 
C 5062 -518 5389 -506 5581 -429 
C 5779 -352 5850 -198 5850 96 
L 5850 5043 
L 563 5043 
z
" transform="scale(0.015625)"/>
      <path id="NotoSansCJKjp-Regular-7b97" d="M 1613 2925 
L 4890 2925 
L 4890 2547 
L 1613 2547 
L 1613 2925 
z
M 1613 2240 
L 4890 2240 
L 4890 1856 
L 1613 1856 
L 1613 2240 
z
M 1613 3597 
L 4890 3597 
L 4890 3232 
L 1613 3232 
L 1613 3597 
z
M 3686 5408 
C 3507 4915 3181 4448 2790 4141 
C 2899 4096 3085 3994 3181 3923 
L 1894 3923 
L 2259 4058 
C 2214 4179 2118 4352 2016 4506 
L 3117 4506 
L 3117 4902 
L 1427 4902 
C 1498 5030 1562 5158 1619 5286 
L 1171 5408 
C 966 4909 614 4410 224 4083 
C 333 4019 525 3891 614 3814 
C 813 4000 1011 4243 1184 4506 
L 1517 4506 
C 1645 4314 1773 4077 1837 3923 
L 1133 3923 
L 1133 1530 
L 1990 1530 
L 1990 1114 
L 1984 973 
L 358 973 
L 358 576 
L 1830 576 
C 1651 307 1267 38 461 -160 
C 563 -250 698 -416 762 -518 
C 1786 -224 2214 179 2381 576 
L 4109 576 
L 4109 -499 
L 4602 -499 
L 4602 576 
L 6067 576 
L 6067 973 
L 4602 973 
L 4602 1530 
L 5389 1530 
L 5389 3923 
L 4749 3923 
L 5094 4083 
C 5030 4205 4915 4358 4787 4506 
L 6016 4506 
L 6016 4902 
L 3968 4902 
C 4038 5030 4096 5165 4147 5299 
L 3686 5408 
z
M 4109 973 
L 2470 973 
L 2477 1101 
L 2477 1530 
L 4109 1530 
L 4109 973 
z
M 3232 3923 
C 3405 4083 3578 4282 3731 4506 
L 4243 4506 
C 4416 4320 4595 4090 4678 3923 
L 3232 3923 
z
" transform="scale(0.015625)"/>
      <path id="NotoSansCJKjp-Regular-6cd5" d="M 589 4979 
C 1030 4800 1574 4499 1837 4275 
L 2118 4672 
C 1843 4896 1293 5171 851 5331 
L 589 4979 
z
M 250 3213 
C 691 3059 1242 2784 1517 2579 
L 1779 2989 
C 1491 3194 934 3443 493 3578 
L 250 3213 
z
M 467 -115 
L 883 -435 
C 1242 166 1664 960 1984 1638 
L 1626 1946 
C 1280 1222 800 378 467 -115 
z
M 4550 1363 
C 4781 1088 5018 768 5222 448 
L 3027 320 
C 3309 877 3616 1606 3846 2227 
L 6080 2227 
L 6080 2688 
L 4250 2688 
L 4250 3872 
L 5779 3872 
L 5779 4326 
L 4250 4326 
L 4250 5376 
L 3763 5376 
L 3763 4326 
L 2291 4326 
L 2291 3872 
L 3763 3872 
L 3763 2688 
L 1971 2688 
L 1971 2227 
L 3283 2227 
C 3091 1613 2784 838 2515 294 
L 1978 269 
L 2042 -218 
C 2938 -160 4230 -70 5472 26 
C 5587 -173 5677 -365 5741 -525 
L 6189 -275 
C 5978 243 5446 1011 4966 1581 
L 4550 1363 
z
" transform="scale(0.015625)"/>
      <path id="NotoSansCJKjp-Regular-5728" d="M 2502 5376 
C 2413 5050 2298 4710 2163 4384 
L 403 4384 
L 403 3923 
L 1952 3923 
C 1542 3104 979 2342 243 1830 
C 320 1722 442 1517 493 1389 
C 762 1581 1011 1798 1235 2035 
L 1235 -486 
L 1715 -486 
L 1715 2605 
C 2016 3014 2278 3462 2496 3923 
L 6010 3923 
L 6010 4384 
L 2694 4384 
C 2810 4672 2912 4966 3002 5254 
L 2502 5376 
z
M 3827 3590 
L 3827 2355 
L 2387 2355 
L 2387 1907 
L 3827 1907 
L 3827 90 
L 2131 90 
L 2131 -358 
L 6003 -358 
L 6003 90 
L 4307 90 
L 4307 1907 
L 5760 1907 
L 5760 2355 
L 4307 2355 
L 4307 3590 
L 3827 3590 
z
" transform="scale(0.015625)"/>
      <path id="NotoSansCJKjp-Regular-2d" d="M 294 1568 
L 1933 1568 
L 1933 2016 
L 294 2016 
L 294 1568 
z
" transform="scale(0.015625)"/>
      <path id="NotoSansCJKjp-Regular-4f" d="M 2374 -83 
C 3552 -83 4378 858 4378 2362 
C 4378 3866 3552 4774 2374 4774 
C 1197 4774 371 3866 371 2362 
C 371 858 1197 -83 2374 -83 
z
M 2374 435 
C 1530 435 979 1190 979 2362 
C 979 3533 1530 4256 2374 4256 
C 3219 4256 3770 3533 3770 2362 
C 3770 1190 3219 435 2374 435 
z
" transform="scale(0.015625)"/>
      <path id="NotoSansCJKjp-Regular-33" d="M 1683 -83 
C 2522 -83 3194 416 3194 1254 
C 3194 1901 2752 2310 2202 2445 
L 2202 2477 
C 2701 2650 3034 3034 3034 3603 
C 3034 4346 2458 4774 1664 4774 
C 1126 4774 710 4538 358 4218 
L 672 3846 
C 941 4115 1267 4301 1645 4301 
C 2138 4301 2438 4006 2438 3558 
C 2438 3053 2112 2662 1139 2662 
L 1139 2214 
C 2227 2214 2598 1843 2598 1274 
C 2598 736 2208 403 1645 403 
C 1114 403 762 659 486 941 
L 186 563 
C 493 224 954 -83 1683 -83 
z
" transform="scale(0.015625)"/>
      <path id="NotoSansCJKjp-Regular-4e0b" d="M 352 4902 
L 352 4422 
L 2822 4422 
L 2822 -506 
L 3328 -506 
L 3328 2886 
C 4064 2490 4922 1958 5370 1600 
L 5709 2035 
C 5197 2426 4179 3002 3418 3373 
L 3328 3270 
L 3328 4422 
L 6054 4422 
L 6054 4902 
L 352 4902 
z
" transform="scale(0.015625)"/>
      <path id="NotoSansCJKjp-Regular-7684" d="M 3533 2707 
C 3885 2240 4320 1600 4512 1210 
L 4922 1466 
C 4710 1843 4269 2464 3904 2918 
L 3533 2707 
z
M 1536 5389 
C 1485 5082 1376 4659 1274 4346 
L 557 4346 
L 557 -346 
L 998 -346 
L 998 160 
L 2784 160 
L 2784 4346 
L 1715 4346 
C 1824 4621 1946 4979 2054 5299 
L 1536 5389 
z
M 998 3917 
L 2342 3917 
L 2342 2566 
L 998 2566 
L 998 3917 
z
M 998 595 
L 998 2144 
L 2342 2144 
L 2342 595 
L 998 595 
z
M 3827 5402 
C 3622 4518 3277 3635 2835 3066 
C 2950 3002 3149 2867 3238 2790 
C 3456 3098 3661 3488 3840 3923 
L 5478 3923 
C 5402 1357 5299 371 5094 154 
C 5018 64 4947 45 4819 45 
C 4672 45 4288 51 3866 83 
C 3955 -38 4013 -243 4026 -378 
C 4384 -397 4762 -410 4979 -390 
C 5210 -365 5350 -314 5498 -122 
C 5754 192 5843 1184 5939 4122 
C 5946 4186 5946 4365 5946 4365 
L 4013 4365 
C 4115 4666 4211 4986 4288 5299 
L 3827 5402 
z
" transform="scale(0.015625)"/>
      <path id="NotoSansCJKjp-Regular-6027" d="M 1101 5376 
L 1101 -506 
L 1581 -506 
L 1581 5376 
L 1101 5376 
z
M 512 4160 
C 467 3642 352 2938 179 2509 
L 557 2381 
C 723 2848 838 3584 877 4109 
L 512 4160 
z
M 1626 4198 
C 1811 3846 2003 3379 2067 3091 
L 2426 3277 
C 2355 3546 2157 4000 1965 4346 
L 1626 4198 
z
M 2138 173 
L 2138 -282 
L 6074 -282 
L 6074 173 
L 4461 173 
L 4461 1779 
L 5779 1779 
L 5779 2227 
L 4461 2227 
L 4461 3558 
L 5920 3558 
L 5920 4019 
L 4461 4019 
L 4461 5350 
L 3974 5350 
L 3974 4019 
L 3181 4019 
C 3264 4333 3341 4672 3405 5005 
L 2938 5082 
C 2790 4211 2534 3341 2163 2784 
C 2278 2733 2496 2624 2592 2560 
C 2758 2835 2906 3174 3034 3558 
L 3974 3558 
L 3974 2227 
L 2618 2227 
L 2618 1779 
L 3974 1779 
L 3974 173 
L 2138 173 
z
" transform="scale(0.015625)"/>
      <path id="NotoSansCJKjp-Regular-80fd" d="M 2131 4774 
C 2278 4576 2432 4339 2560 4109 
L 1248 4058 
C 1446 4422 1651 4864 1824 5261 
L 1331 5382 
C 1197 4979 966 4442 742 4038 
L 256 4019 
L 294 3552 
C 960 3590 1882 3635 2784 3693 
C 2854 3552 2912 3424 2950 3309 
L 3366 3494 
C 3226 3891 2867 4486 2528 4928 
L 2131 4774 
z
M 2451 2688 
L 2451 2138 
L 1088 2138 
L 1088 2688 
L 2451 2688 
z
M 640 3098 
L 640 -506 
L 1088 -506 
L 1088 800 
L 2451 800 
L 2451 51 
C 2451 -32 2432 -58 2349 -58 
C 2253 -64 1984 -64 1683 -51 
C 1747 -179 1818 -365 1843 -493 
C 2246 -493 2522 -486 2701 -416 
C 2874 -339 2925 -205 2925 45 
L 2925 3098 
L 640 3098 
z
M 1088 1760 
L 2451 1760 
L 2451 1178 
L 1088 1178 
L 1088 1760 
z
M 5491 4896 
C 5126 4704 4550 4474 4006 4288 
L 4006 5363 
L 3526 5363 
L 3526 3238 
C 3526 2707 3686 2566 4307 2566 
C 4429 2566 5267 2566 5408 2566 
C 5920 2566 6061 2771 6118 3558 
C 5984 3590 5786 3661 5683 3744 
C 5658 3110 5613 3002 5363 3002 
C 5184 3002 4480 3002 4352 3002 
C 4058 3002 4006 3040 4006 3245 
L 4006 3904 
C 4621 4083 5306 4307 5811 4538 
L 5491 4896 
z
M 5568 2042 
C 5197 1805 4582 1555 4000 1363 
L 4000 2387 
L 3526 2387 
L 3526 224 
C 3526 -314 3693 -454 4320 -454 
C 4454 -454 5318 -454 5459 -454 
C 5997 -454 6138 -224 6195 634 
C 6061 666 5875 742 5760 819 
C 5734 96 5690 -26 5421 -26 
C 5229 -26 4506 -26 4365 -26 
C 4058 -26 4000 13 4000 224 
L 4000 966 
C 4646 1146 5382 1395 5882 1683 
L 5568 2042 
z
" transform="scale(0.015625)"/>
      <path id="NotoSansCJKjp-Regular-5bf9" d="M 3213 2522 
C 3514 2067 3802 1459 3904 1075 
L 4326 1286 
C 4224 1670 3917 2259 3603 2701 
L 3213 2522 
z
M 582 2899 
C 973 2547 1389 2131 1760 1709 
C 1376 890 870 269 288 -109 
C 403 -205 550 -384 627 -499 
C 1216 -77 1715 512 2106 1299 
C 2394 941 2630 602 2784 314 
L 3168 666 
C 2982 998 2682 1395 2330 1798 
C 2624 2534 2835 3411 2944 4448 
L 2630 4538 
L 2547 4518 
L 448 4518 
L 448 4064 
L 2419 4064 
C 2323 3373 2170 2752 1965 2202 
C 1626 2554 1267 2899 922 3200 
L 582 2899 
z
M 4896 5376 
L 4896 3834 
L 3085 3834 
L 3085 3373 
L 4896 3373 
L 4896 141 
C 4896 26 4851 -6 4742 -13 
C 4634 -13 4275 -19 3872 0 
C 3936 -147 4006 -371 4032 -506 
C 4576 -506 4902 -493 5094 -410 
C 5293 -326 5370 -179 5370 141 
L 5370 3373 
L 6138 3373 
L 6138 3834 
L 5370 3834 
L 5370 5376 
L 4896 5376 
z
" transform="scale(0.015625)"/>
      <path id="NotoSansCJKjp-Regular-6bd4" d="M 250 128 
L 397 -371 
C 1197 -179 2278 77 3290 326 
L 3245 787 
C 2694 659 2125 525 1600 410 
L 1600 2925 
L 3046 2925 
L 3046 3398 
L 1600 3398 
L 1600 5344 
L 1107 5344 
L 1107 301 
L 250 128 
z
M 3520 5344 
L 3520 512 
C 3520 -186 3693 -371 4320 -371 
C 4448 -371 5261 -371 5395 -371 
C 6003 -371 6138 -13 6202 1037 
C 6061 1069 5869 1152 5747 1248 
C 5709 320 5670 83 5370 83 
C 5190 83 4506 83 4371 83 
C 4064 83 4013 147 4013 499 
L 4013 2586 
C 4691 2874 5414 3219 5952 3571 
L 5594 3974 
C 5216 3674 4608 3328 4013 3046 
L 4013 5344 
L 3520 5344 
z
" transform="scale(0.015625)"/>
     </defs>
     <use xlink:href="#NotoSansCJKjp-Regular-4e0d"/>
     <use xlink:href="#NotoSansCJKjp-Regular-540c" transform="translate(99.999985 0)"/>
     <use xlink:href="#NotoSansCJKjp-Regular-7b97" transform="translate(199.999969 0)"/>
     <use xlink:href="#NotoSansCJKjp-Regular-6cd5" transform="translate(299.999954 0)"/>
     <use xlink:href="#NotoSansCJKjp-Regular-5728" transform="translate(399.999939 0)"/>
     <use xlink:href="#NotoSansCJKjp-Regular-20" transform="translate(499.999924 0)"/>
     <use xlink:href="#NotoSansCJKjp-Regular-2d" transform="translate(522.399918 0)"/>
     <use xlink:href="#NotoSansCJKjp-Regular-4f" transform="translate(557.099915 0)"/>
     <use xlink:href="#NotoSansCJKjp-Regular-33" transform="translate(631.299896 0)"/>
     <use xlink:href="#NotoSansCJKjp-Regular-20" transform="translate(686.799881 0)"/>
     <use xlink:href="#NotoSansCJKjp-Regular-4e0b" transform="translate(709.199875 0)"/>
     <use xlink:href="#NotoSansCJKjp-Regular-7684" transform="translate(809.19986 0)"/>
     <use xlink:href="#NotoSansCJKjp-Regular-6027" transform="translate(909.199844 0)"/>
     <use xlink:href="#NotoSansCJKjp-Regular-80fd" transform="translate(1009.199829 0)"/>
     <use xlink:href="#NotoSansCJKjp-Regular-5bf9" transform="translate(1109.199814 0)"/>
     <use xlink:href="#NotoSansCJKjp-Regular-6bd4" transform="translate(1209.199799 0)"/>
    </g>
   </g>
   <g id="legend_1">
    <g id="patch_7">
     <path d="M 63.334554 78.679375 
L 152.304866 78.679375 
Q 154.304866 78.679375 154.304866 76.679375 
L 154.304866 31.72 
Q 154.304866 29.72 152.304866 29.72 
L 63.334554 29.72 
Q 61.334554 29.72 61.334554 31.72 
L 61.334554 76.679375 
Q 61.334554 78.679375 63.334554 78.679375 
z
" style="fill: #ffffff; opacity: 0.8; stroke: #cccccc; stroke-linejoin: miter"/>
    </g>
    <g id="LineCollection_4">
     <path d="M 75.334554 43.179375 
L 75.334554 33.179375 
" style="fill: none; stroke: #1f77b4; stroke-width: 1.5"/>
    </g>
    <g id="line2d_35">
     <g>
      <use xlink:href="#m9957a4a7cb" x="75.334554" y="43.179375" style="fill: #1f77b4; stroke: #1f77b4"/>
     </g>
    </g>
    <g id="line2d_36">
     <g>
      <use xlink:href="#m9957a4a7cb" x="75.334554" y="33.179375" style="fill: #1f77b4; stroke: #1f77b4"/>
     </g>
    </g>
    <g id="line2d_37">
     <path d="M 65.334554 38.179375 
L 85.334554 38.179375 
" style="fill: none; stroke: #1f77b4; stroke-width: 1.5; stroke-linecap: square"/>
    </g>
    <g id="line2d_38">
     <g>
      <use xlink:href="#mcdf8eb3b6a" x="75.334554" y="38.179375" style="fill: #1f77b4; stroke: #1f77b4"/>
     </g>
    </g>
    <g id="text_7">
     <!-- merge_omp -->
     <g transform="translate(93.334554 41.679375) scale(0.1 -0.1)">
      <defs>
       <path id="NotoSansCJKjp-Regular-6d" d="M 589 0 
L 1178 0 
L 1178 2522 
C 1491 2880 1786 3053 2048 3053 
C 2490 3053 2694 2778 2694 2125 
L 2694 0 
L 3277 0 
L 3277 2522 
C 3603 2880 3885 3053 4154 3053 
C 4595 3053 4800 2778 4800 2125 
L 4800 0 
L 5382 0 
L 5382 2202 
C 5382 3085 5043 3565 4333 3565 
C 3904 3565 3546 3290 3181 2899 
C 3040 3309 2758 3565 2221 3565 
C 1805 3565 1446 3302 1139 2970 
L 1126 2970 
L 1069 3475 
L 589 3475 
L 589 0 
z
" transform="scale(0.015625)"/>
       <path id="NotoSansCJKjp-Regular-65" d="M 1997 -83 
C 2464 -83 2835 70 3136 269 
L 2931 659 
C 2669 486 2400 384 2061 384 
C 1402 384 947 858 909 1600 
L 3251 1600 
C 3264 1690 3277 1805 3277 1933 
C 3277 2925 2778 3565 1888 3565 
C 1094 3565 333 2867 333 1734 
C 333 589 1069 -83 1997 -83 
z
M 902 2016 
C 973 2707 1408 3098 1901 3098 
C 2445 3098 2765 2720 2765 2016 
L 902 2016 
z
" transform="scale(0.015625)"/>
       <path id="NotoSansCJKjp-Regular-72" d="M 589 0 
L 1178 0 
L 1178 2234 
C 1408 2822 1760 3040 2048 3040 
C 2195 3040 2272 3021 2387 2982 
L 2496 3488 
C 2387 3546 2278 3565 2125 3565 
C 1741 3565 1382 3283 1139 2842 
L 1126 2842 
L 1069 3475 
L 589 3475 
L 589 0 
z
" transform="scale(0.015625)"/>
       <path id="NotoSansCJKjp-Regular-67" d="M 1760 -1600 
C 2835 -1600 3520 -1043 3520 -397 
C 3520 179 3110 429 2310 429 
L 1626 429 
C 1158 429 1018 589 1018 806 
C 1018 998 1114 1114 1242 1222 
C 1395 1146 1587 1101 1754 1101 
C 2470 1101 3027 1568 3027 2310 
C 3027 2611 2912 2867 2746 3027 
L 3456 3027 
L 3456 3475 
L 2246 3475 
C 2125 3526 1952 3565 1754 3565 
C 1056 3565 454 3085 454 2323 
C 454 1907 678 1568 909 1389 
L 909 1363 
C 723 1235 525 1005 525 717 
C 525 442 659 256 838 147 
L 838 115 
C 512 -83 326 -371 326 -672 
C 326 -1267 915 -1600 1760 -1600 
z
M 1754 1498 
C 1357 1498 1018 1818 1018 2323 
C 1018 2835 1350 3136 1754 3136 
C 2170 3136 2496 2835 2496 2323 
C 2496 1818 2157 1498 1754 1498 
z
M 1843 -1197 
C 1210 -1197 838 -960 838 -589 
C 838 -390 941 -179 1190 0 
C 1344 -38 1510 -51 1638 -51 
L 2240 -51 
C 2701 -51 2944 -166 2944 -493 
C 2944 -851 2515 -1197 1843 -1197 
z
" transform="scale(0.015625)"/>
       <path id="NotoSansCJKjp-Regular-5f" d="M 83 -896 
L 3488 -896 
L 3488 -512 
L 83 -512 
L 83 -896 
z
" transform="scale(0.015625)"/>
       <path id="NotoSansCJKjp-Regular-6f" d="M 1939 -83 
C 2790 -83 3546 582 3546 1734 
C 3546 2893 2790 3565 1939 3565 
C 1088 3565 333 2893 333 1734 
C 333 582 1088 -83 1939 -83 
z
M 1939 403 
C 1338 403 934 934 934 1734 
C 934 2534 1338 3072 1939 3072 
C 2541 3072 2950 2534 2950 1734 
C 2950 934 2541 403 1939 403 
z
" transform="scale(0.015625)"/>
       <path id="NotoSansCJKjp-Regular-70" d="M 589 -1466 
L 1178 -1466 
L 1178 -288 
L 1158 320 
C 1472 58 1805 -83 2118 -83 
C 2912 -83 3629 602 3629 1792 
C 3629 2867 3142 3565 2246 3565 
C 1843 3565 1453 3334 1139 3072 
L 1126 3072 
L 1069 3475 
L 589 3475 
L 589 -1466 
z
M 2022 410 
C 1792 410 1485 499 1178 768 
L 1178 2598 
C 1510 2906 1811 3072 2099 3072 
C 2765 3072 3021 2560 3021 1786 
C 3021 928 2598 410 2022 410 
z
" transform="scale(0.015625)"/>
      </defs>
      <use xlink:href="#NotoSansCJKjp-Regular-6d"/>
      <use xlink:href="#NotoSansCJKjp-Regular-65" transform="translate(92.599991 0)"/>
      <use xlink:href="#NotoSansCJKjp-Regular-72" transform="translate(147.999985 0)"/>
      <use xlink:href="#NotoSansCJKjp-Regular-67" transform="translate(186.799973 0)"/>
      <use xlink:href="#NotoSansCJKjp-Regular-65" transform="translate(243.199966 0)"/>
      <use xlink:href="#NotoSansCJKjp-Regular-5f" transform="translate(298.59996 0)"/>
      <use xlink:href="#NotoSansCJKjp-Regular-6f" transform="translate(354.499954 0)"/>
      <use xlink:href="#NotoSansCJKjp-Regular-6d" transform="translate(415.099945 0)"/>
      <use xlink:href="#NotoSansCJKjp-Regular-70" transform="translate(507.699936 0)"/>
     </g>
    </g>
    <g id="LineCollection_5">
     <path d="M 75.334554 58.63875 
L 75.334554 48.63875 
" style="fill: none; stroke: #ff7f0e; stroke-width: 1.5"/>
    </g>
    <g id="line2d_39">
     <g>
      <use xlink:href="#m05141bb073" x="75.334554" y="58.63875" style="fill: #ff7f0e; stroke: #ff7f0e"/>
     </g>
    </g>
    <g id="line2d_40">
     <g>
      <use xlink:href="#m05141bb073" x="75.334554" y="48.63875" style="fill: #ff7f0e; stroke: #ff7f0e"/>
     </g>
    </g>
    <g id="line2d_41">
     <path d="M 65.334554 53.63875 
L 85.334554 53.63875 
" style="fill: none; stroke: #ff7f0e; stroke-width: 1.5; stroke-linecap: square"/>
    </g>
    <g id="line2d_42">
     <g>
      <use xlink:href="#mf1395d119a" x="75.334554" y="53.63875" style="fill: #ff7f0e; stroke: #ff7f0e"/>
     </g>
    </g>
    <g id="text_8">
     <!-- quick_iter -->
     <g transform="translate(93.334554 57.13875) scale(0.1 -0.1)">
      <defs>
       <path id="NotoSansCJKjp-Regular-71" d="M 2790 -1466 
L 3379 -1466 
L 3379 3475 
L 2912 3475 
L 2854 3149 
L 2842 3149 
C 2534 3418 2253 3565 1843 3565 
C 1050 3565 339 2861 339 1734 
C 339 576 902 -83 1773 -83 
C 2176 -83 2541 128 2822 403 
L 2790 -230 
L 2790 -1466 
z
M 1901 410 
C 1293 410 941 902 941 1741 
C 941 2534 1389 3072 1946 3072 
C 2234 3072 2502 2970 2790 2707 
L 2790 883 
C 2502 563 2221 410 1901 410 
z
" transform="scale(0.015625)"/>
       <path id="NotoSansCJKjp-Regular-75" d="M 1606 -83 
C 2080 -83 2426 166 2752 544 
L 2771 544 
L 2816 0 
L 3302 0 
L 3302 3475 
L 2720 3475 
L 2720 1011 
C 2387 602 2138 422 1779 422 
C 1318 422 1126 698 1126 1344 
L 1126 3475 
L 538 3475 
L 538 1274 
C 538 384 870 -83 1606 -83 
z
" transform="scale(0.015625)"/>
       <path id="NotoSansCJKjp-Regular-69" d="M 589 0 
L 1178 0 
L 1178 3475 
L 589 3475 
L 589 0 
z
M 883 4192 
C 1114 4192 1274 4346 1274 4582 
C 1274 4806 1114 4960 883 4960 
C 653 4960 499 4806 499 4582 
C 499 4346 653 4192 883 4192 
z
" transform="scale(0.015625)"/>
       <path id="NotoSansCJKjp-Regular-63" d="M 1958 -83 
C 2374 -83 2771 83 3085 352 
L 2829 749 
C 2611 557 2330 403 2010 403 
C 1370 403 934 934 934 1734 
C 934 2534 1395 3072 2029 3072 
C 2298 3072 2522 2950 2720 2771 
L 3014 3155 
C 2771 3373 2458 3565 2003 3565 
C 1107 3565 333 2893 333 1734 
C 333 582 1037 -83 1958 -83 
z
" transform="scale(0.015625)"/>
       <path id="NotoSansCJKjp-Regular-6b" d="M 589 0 
L 1165 0 
L 1165 915 
L 1818 1677 
L 2835 0 
L 3469 0 
L 2157 2074 
L 3315 3475 
L 2662 3475 
L 1190 1645 
L 1165 1645 
L 1165 5094 
L 589 5094 
L 589 0 
z
" transform="scale(0.015625)"/>
       <path id="NotoSansCJKjp-Regular-74" d="M 1677 -83 
C 1894 -83 2125 -19 2323 45 
L 2208 486 
C 2093 435 1939 390 1811 390 
C 1408 390 1274 634 1274 1056 
L 1274 3002 
L 2221 3002 
L 2221 3475 
L 1274 3475 
L 1274 4454 
L 787 4454 
L 723 3475 
L 173 3443 
L 173 3002 
L 691 3002 
L 691 1075 
C 691 378 941 -83 1677 -83 
z
" transform="scale(0.015625)"/>
      </defs>
      <use xlink:href="#NotoSansCJKjp-Regular-71"/>
      <use xlink:href="#NotoSansCJKjp-Regular-75" transform="translate(61.999985 0)"/>
      <use xlink:href="#NotoSansCJKjp-Regular-69" transform="translate(122.699982 0)"/>
      <use xlink:href="#NotoSansCJKjp-Regular-63" transform="translate(150.199966 0)"/>
      <use xlink:href="#NotoSansCJKjp-Regular-6b" transform="translate(201.199951 0)"/>
      <use xlink:href="#NotoSansCJKjp-Regular-5f" transform="translate(256.399948 0)"/>
      <use xlink:href="#NotoSansCJKjp-Regular-69" transform="translate(312.299942 0)"/>
      <use xlink:href="#NotoSansCJKjp-Regular-74" transform="translate(339.799927 0)"/>
      <use xlink:href="#NotoSansCJKjp-Regular-65" transform="translate(377.499924 0)"/>
      <use xlink:href="#NotoSansCJKjp-Regular-72" transform="translate(432.899918 0)"/>
     </g>
    </g>
    <g id="LineCollection_6">
     <path d="M 75.334554 73.88875 
L 75.334554 63.88875 
" style="fill: none; stroke: #2ca02c; stroke-width: 1.5"/>
    </g>
    <g id="line2d_43">
     <g>
      <use xlink:href="#m3c37344e5f" x="75.334554" y="73.88875" style="fill: #2ca02c; stroke: #2ca02c"/>
     </g>
    </g>
    <g id="line2d_44">
     <g>
      <use xlink:href="#m3c37344e5f" x="75.334554" y="63.88875" style="fill: #2ca02c; stroke: #2ca02c"/>
     </g>
    </g>
    <g id="line2d_45">
     <path d="M 65.334554 68.88875 
L 85.334554 68.88875 
" style="fill: none; stroke: #2ca02c; stroke-width: 1.5; stroke-linecap: square"/>
    </g>
    <g id="line2d_46">
     <g>
      <use xlink:href="#m643ec32a7b" x="75.334554" y="68.88875" style="fill: #2ca02c; stroke: #2ca02c"/>
     </g>
    </g>
    <g id="text_9">
     <!-- quick_rec -->
     <g transform="translate(93.334554 72.38875) scale(0.1 -0.1)">
      <use xlink:href="#NotoSansCJKjp-Regular-71"/>
      <use xlink:href="#NotoSansCJKjp-Regular-75" transform="translate(61.999985 0)"/>
      <use xlink:href="#NotoSansCJKjp-Regular-69" transform="translate(122.699982 0)"/>
      <use xlink:href="#NotoSansCJKjp-Regular-63" transform="translate(150.199966 0)"/>
      <use xlink:href="#NotoSansCJKjp-Regular-6b" transform="translate(201.199951 0)"/>
      <use xlink:href="#NotoSansCJKjp-Regular-5f" transform="translate(256.399948 0)"/>
      <use xlink:href="#NotoSansCJKjp-Regular-72" transform="translate(312.299942 0)"/>
      <use xlink:href="#NotoSansCJKjp-Regular-65" transform="translate(351.09993 0)"/>
      <use xlink:href="#NotoSansCJKjp-Regular-63" transform="translate(406.499924 0)"/>
     </g>
    </g>
   </g>
  </g>
 </g>
 <defs>
  <clipPath id="p1f29892583">
   <rect x="56.334554" y="24.72" width="364.865446" height="217.423"/>
  </clipPath>
 </defs>
</svg>
