<?xml version="1.0" encoding="utf-8" standalone="no"?>
<!DOCTYPE svg PUBLIC "-//W3C//DTD SVG 1.1//EN"
  "http://www.w3.org/Graphics/SVG/1.1/DTD/svg11.dtd">
<svg xmlns:xlink="http://www.w3.org/1999/xlink" width="432pt" height="288pt" viewBox="0 0 432 288" xmlns="http://www.w3.org/2000/svg" version="1.1">
 <metadata>
  <rdf:RDF xmlns:dc="http://purl.org/dc/elements/1.1/" xmlns:cc="http://creativecommons.org/ns#" xmlns:rdf="http://www.w3.org/1999/02/22-rdf-syntax-ns#">
   <cc:Work>
    <dc:type rdf:resource="http://purl.org/dc/dcmitype/StillImage"/>
    <dc:date>2025-10-19T19:33:06.142841</dc:date>
    <dc:format>image/svg+xml</dc:format>
    <dc:creator>
     <cc:Agent>
      <dc:title>Matplotlib v3.10.7, https://matplotlib.org/</dc:title>
     </cc:Agent>
    </dc:creator>
   </cc:Work>
  </rdf:RDF>
 </metadata>
 <defs>
  <style type="text/css">*{stroke-linejoin: round; stroke-linecap: butt}</style>
 </defs>
 <g id="figure_1">
  <g id="patch_1">
   <path d="M 0 288 
L 432 288 
L 432 0 
L 0 0 
z
" style="fill: #ffffff"/>
  </g>
  <g id="axes_1">
   <g id="patch_2">
    <path d="M 56.357054 242.143 
L 421.2 242.143 
L 421.2 25.5525 
L 56.357054 25.5525 
z
" style="fill: #ffffff"/>
   </g>
   <g id="matplotlib.axis_1">
    <g id="xtick_1">
     <g id="line2d_1">
      <defs>
       <path id="m412541356f" d="M 0 0 
L 0 3.5 
" style="stroke: #000000; stroke-width: 0.8"/>
      </defs>
      <g>
       <use xlink:href="#m412541356f" x="72.940824" y="242.143" style="stroke: #000000; stroke-width: 0.8"/>
      </g>
     </g>
     <g id="text_1">
      <!-- $\mathdefault{10^{5}}$ -->
      <g transform="translate(64.140824 256.741438) scale(0.1 -0.1)">
       <defs>
        <path id="DejaVuSans-31" d="M 794 531 
L 1825 531 
L 1825 4091 
L 703 3866 
L 703 4441 
L 1819 4666 
L 2450 4666 
L 2450 531 
L 3481 531 
L 3481 0 
L 794 0 
L 794 531 
z
" transform="scale(0.015625)"/>
        <path id="DejaVuSans-30" d="M 2034 4250 
Q 1547 4250 1301 3770 
Q 1056 3291 1056 2328 
Q 1056 1369 1301 889 
Q 1547 409 2034 409 
Q 2525 409 2770 889 
Q 3016 1369 3016 2328 
Q 3016 3291 2770 3770 
Q 2525 4250 2034 4250 
z
M 2034 4750 
Q 2819 4750 3233 4129 
Q 3647 3509 3647 2328 
Q 3647 1150 3233 529 
Q 2819 -91 2034 -91 
Q 1250 -91 836 529 
Q 422 1150 422 2328 
Q 422 3509 836 4129 
Q 1250 4750 2034 4750 
z
" transform="scale(0.015625)"/>
        <path id="DejaVuSans-35" d="M 691 4666 
L 3169 4666 
L 3169 4134 
L 1269 4134 
L 1269 2991 
Q 1406 3038 1543 3061 
Q 1681 3084 1819 3084 
Q 2600 3084 3056 2656 
Q 3513 2228 3513 1497 
Q 3513 744 3044 326 
Q 2575 -91 1722 -91 
Q 1428 -91 1123 -41 
Q 819 9 494 109 
L 494 744 
Q 775 591 1075 516 
Q 1375 441 1709 441 
Q 2250 441 2565 725 
Q 2881 1009 2881 1497 
Q 2881 1984 2565 2268 
Q 2250 2553 1709 2553 
Q 1456 2553 1204 2497 
Q 953 2441 691 2322 
L 691 4666 
z
" transform="scale(0.015625)"/>
       </defs>
       <use xlink:href="#DejaVuSans-31" transform="translate(0 0.684375)"/>
       <use xlink:href="#DejaVuSans-30" transform="translate(63.623047 0.684375)"/>
       <use xlink:href="#DejaVuSans-35" transform="translate(128.203125 38.965625) scale(0.7)"/>
      </g>
     </g>
    </g>
    <g id="xtick_2">
     <g id="line2d_2">
      <g>
       <use xlink:href="#m412541356f" x="404.61623" y="242.143" style="stroke: #000000; stroke-width: 0.8"/>
      </g>
     </g>
     <g id="text_2">
      <!-- $\mathdefault{10^{6}}$ -->
      <g transform="translate(395.81623 256.741438) scale(0.1 -0.1)">
       <defs>
        <path id="DejaVuSans-36" d="M 2113 2584 
Q 1688 2584 1439 2293 
Q 1191 2003 1191 1497 
Q 1191 994 1439 701 
Q 1688 409 2113 409 
Q 2538 409 2786 701 
Q 3034 994 3034 1497 
Q 3034 2003 2786 2293 
Q 2538 2584 2113 2584 
z
M 3366 4563 
L 3366 3988 
Q 3128 4100 2886 4159 
Q 2644 4219 2406 4219 
Q 1781 4219 1451 3797 
Q 1122 3375 1075 2522 
Q 1259 2794 1537 2939 
Q 1816 3084 2150 3084 
Q 2853 3084 3261 2657 
Q 3669 2231 3669 1497 
Q 3669 778 3244 343 
Q 2819 -91 2113 -91 
Q 1303 -91 875 529 
Q 447 1150 447 2328 
Q 447 3434 972 4092 
Q 1497 4750 2381 4750 
Q 2619 4750 2861 4703 
Q 3103 4656 3366 4563 
z
" transform="scale(0.015625)"/>
       </defs>
       <use xlink:href="#DejaVuSans-31" transform="translate(0 0.765625)"/>
       <use xlink:href="#DejaVuSans-30" transform="translate(63.623047 0.765625)"/>
       <use xlink:href="#DejaVuSans-36" transform="translate(128.203125 39.046875) scale(0.7)"/>
      </g>
     </g>
    </g>
    <g id="xtick_3">
     <g id="line2d_3">
      <defs>
       <path id="mdb47eaea62" d="M 0 0 
L 0 2 
" style="stroke: #000000; stroke-width: 0.6"/>
      </defs>
      <g>
       <use xlink:href="#mdb47eaea62" x="57.76419" y="242.143" style="stroke: #000000; stroke-width: 0.6"/>
      </g>
     </g>
    </g>
    <g id="xtick_4">
     <g id="line2d_4">
      <g>
       <use xlink:href="#mdb47eaea62" x="172.78507" y="242.143" style="stroke: #000000; stroke-width: 0.6"/>
      </g>
     </g>
    </g>
    <g id="xtick_5">
     <g id="line2d_5">
      <g>
       <use xlink:href="#mdb47eaea62" x="231.19021" y="242.143" style="stroke: #000000; stroke-width: 0.6"/>
      </g>
     </g>
    </g>
    <g id="xtick_6">
     <g id="line2d_6">
      <g>
       <use xlink:href="#mdb47eaea62" x="272.629316" y="242.143" style="stroke: #000000; stroke-width: 0.6"/>
      </g>
     </g>
    </g>
    <g id="xtick_7">
     <g id="line2d_7">
      <g>
       <use xlink:href="#mdb47eaea62" x="304.771984" y="242.143" style="stroke: #000000; stroke-width: 0.6"/>
      </g>
     </g>
    </g>
    <g id="xtick_8">
     <g id="line2d_8">
      <g>
       <use xlink:href="#mdb47eaea62" x="331.034456" y="242.143" style="stroke: #000000; stroke-width: 0.6"/>
      </g>
     </g>
    </g>
    <g id="xtick_9">
     <g id="line2d_9">
      <g>
       <use xlink:href="#mdb47eaea62" x="353.239059" y="242.143" style="stroke: #000000; stroke-width: 0.6"/>
      </g>
     </g>
    </g>
    <g id="xtick_10">
     <g id="line2d_10">
      <g>
       <use xlink:href="#mdb47eaea62" x="372.473562" y="242.143" style="stroke: #000000; stroke-width: 0.6"/>
      </g>
     </g>
    </g>
    <g id="xtick_11">
     <g id="line2d_11">
      <g>
       <use xlink:href="#mdb47eaea62" x="389.439595" y="242.143" style="stroke: #000000; stroke-width: 0.6"/>
      </g>
     </g>
    </g>
    <g id="text_3">
     <!-- 数据规模 (n) -->
     <g transform="translate(211.228527 270.89925) scale(0.1 -0.1)">
      <defs>
       <path id="NotoSansCJKjp-Regular-6570" d="M 2803 5254 
C 2688 4998 2483 4627 2317 4403 
L 2643 4243 
C 2816 4454 3027 4781 3219 5075 
L 2803 5254 
z
M 531 5075 
C 704 4806 870 4454 928 4230 
L 1312 4397 
C 1248 4627 1075 4973 890 5222 
L 531 5075 
z
M 4026 5382 
C 3846 4243 3507 3162 2970 2490 
C 3078 2413 3283 2246 3360 2163 
C 3533 2394 3693 2669 3827 2970 
C 3974 2310 4160 1709 4410 1184 
C 4090 698 3667 314 3110 19 
C 2912 166 2656 326 2374 480 
C 2598 774 2746 1126 2829 1562 
L 3398 1562 
L 3398 1958 
L 1677 1958 
L 1894 2413 
L 1779 2438 
L 2061 2438 
L 2061 3398 
C 2374 3168 2771 2854 2938 2701 
L 3206 3046 
C 3034 3174 2336 3616 2061 3776 
L 2061 3802 
L 3373 3802 
L 3373 4198 
L 2061 4198 
L 2061 5382 
L 1613 5382 
L 1613 4198 
L 288 4198 
L 288 3802 
L 1485 3802 
C 1171 3379 678 2982 218 2784 
C 314 2694 422 2528 480 2419 
C 870 2637 1293 2989 1613 3373 
L 1613 2477 
L 1440 2515 
L 1178 1958 
L 250 1958 
L 250 1562 
L 979 1562 
C 806 1222 627 896 486 653 
L 909 506 
L 1005 678 
C 1222 589 1434 493 1638 384 
C 1306 147 858 -13 269 -109 
C 352 -211 448 -384 480 -512 
C 1171 -365 1683 -154 2061 160 
C 2355 -13 2611 -186 2810 -352 
L 2963 -192 
C 3046 -301 3136 -448 3174 -531 
C 3802 -205 4288 205 4666 710 
C 4979 192 5370 -224 5862 -512 
C 5939 -378 6093 -192 6208 -96 
C 5690 173 5280 614 4960 1165 
C 5350 1856 5594 2707 5754 3750 
L 6144 3750 
L 6144 4198 
L 4262 4198 
C 4358 4557 4442 4928 4506 5312 
L 4026 5382 
z
M 1478 1562 
L 2368 1562 
C 2285 1216 2157 928 1965 698 
C 1715 819 1459 934 1197 1030 
L 1478 1562 
z
M 4134 3750 
L 5254 3750 
C 5139 2950 4966 2266 4698 1696 
C 4435 2298 4250 3002 4134 3750 
z
" transform="scale(0.015625)"/>
       <path id="NotoSansCJKjp-Regular-636e" d="M 3098 1523 
L 3098 -518 
L 3520 -518 
L 3520 -256 
L 5491 -256 
L 5491 -493 
L 5933 -493 
L 5933 1523 
L 4698 1523 
L 4698 2317 
L 6131 2317 
L 6131 2733 
L 4698 2733 
L 4698 3437 
L 5907 3437 
L 5907 5094 
L 2528 5094 
L 2528 3162 
C 2528 2144 2470 749 1805 -237 
C 1914 -288 2112 -429 2202 -506 
C 2733 275 2912 1363 2970 2317 
L 4243 2317 
L 4243 1523 
L 3098 1523 
z
M 2995 4678 
L 5446 4678 
L 5446 3859 
L 2995 3859 
L 2995 4678 
z
M 2995 3437 
L 4243 3437 
L 4243 2733 
L 2989 2733 
L 2995 3162 
L 2995 3437 
z
M 3520 141 
L 3520 1114 
L 5491 1114 
L 5491 141 
L 3520 141 
z
M 1069 5370 
L 1069 4083 
L 269 4083 
L 269 3635 
L 1069 3635 
L 1069 2234 
C 736 2131 429 2042 186 1978 
L 314 1504 
L 1069 1747 
L 1069 90 
C 1069 0 1037 -26 960 -26 
C 883 -32 634 -32 358 -26 
C 416 -154 480 -352 493 -467 
C 896 -474 1146 -454 1299 -378 
C 1459 -307 1517 -173 1517 90 
L 1517 1894 
L 2253 2138 
L 2182 2579 
L 1517 2368 
L 1517 3635 
L 2240 3635 
L 2240 4083 
L 1517 4083 
L 1517 5370 
L 1069 5370 
z
" transform="scale(0.015625)"/>
       <path id="NotoSansCJKjp-Regular-89c4" d="M 3046 5062 
L 3046 1658 
L 3507 1658 
L 3507 4640 
L 5274 4640 
L 5274 1658 
L 5754 1658 
L 5754 5062 
L 3046 5062 
z
M 1331 5312 
L 1331 4314 
L 416 4314 
L 416 3866 
L 1331 3866 
L 1331 3232 
L 1325 2829 
L 275 2829 
L 275 2374 
L 1306 2374 
C 1242 1504 1011 531 230 -109 
C 346 -192 506 -352 576 -448 
C 1184 96 1491 806 1638 1530 
C 1920 1178 2298 685 2451 429 
L 2784 787 
C 2630 986 1984 1760 1722 2022 
L 1760 2374 
L 2739 2374 
L 2739 2829 
L 1779 2829 
L 1786 3238 
L 1786 3866 
L 2662 3866 
L 2662 4314 
L 1786 4314 
L 1786 5312 
L 1331 5312 
z
M 4173 4096 
L 4173 2867 
C 4173 1875 3968 666 2355 -160 
C 2451 -230 2598 -410 2656 -506 
C 3635 0 4141 691 4390 1389 
L 4390 173 
C 4390 -256 4550 -378 4966 -378 
L 5485 -378 
C 6010 -378 6086 -122 6138 877 
C 6022 902 5862 973 5747 1062 
C 5722 173 5690 6 5485 6 
L 5030 6 
C 4870 6 4819 51 4819 224 
L 4819 1856 
L 4525 1856 
C 4595 2202 4621 2547 4621 2861 
L 4621 4096 
L 4173 4096 
z
" transform="scale(0.015625)"/>
       <path id="NotoSansCJKjp-Regular-6a21" d="M 3021 2669 
L 5248 2669 
L 5248 2208 
L 3021 2208 
L 3021 2669 
z
M 3021 3469 
L 5248 3469 
L 5248 3021 
L 3021 3021 
L 3021 3469 
z
M 4685 5376 
L 4685 4845 
L 3699 4845 
L 3699 5376 
L 3245 5376 
L 3245 4845 
L 2304 4845 
L 2304 4435 
L 3245 4435 
L 3245 3955 
L 3699 3955 
L 3699 4435 
L 4685 4435 
L 4685 3955 
L 5152 3955 
L 5152 4435 
L 6048 4435 
L 6048 4845 
L 5152 4845 
L 5152 5376 
L 4685 5376 
z
M 2573 3834 
L 2573 1850 
L 3878 1850 
C 3853 1658 3827 1485 3782 1318 
L 2176 1318 
L 2176 909 
L 3642 909 
C 3398 416 2938 77 1997 -128 
C 2086 -224 2208 -403 2253 -512 
C 3366 -243 3885 218 4141 896 
C 4461 192 5056 -288 5888 -512 
C 5952 -390 6080 -211 6182 -115 
C 5459 38 4909 390 4602 909 
L 6035 909 
L 6035 1318 
L 4262 1318 
C 4294 1485 4326 1664 4346 1850 
L 5715 1850 
L 5715 3834 
L 2573 3834 
z
M 1120 5376 
L 1120 4141 
L 320 4141 
L 320 3693 
L 1120 3693 
L 1120 3686 
C 947 2816 576 1798 205 1261 
C 288 1146 403 934 461 794 
C 704 1171 934 1754 1120 2381 
L 1120 -506 
L 1581 -506 
L 1581 2790 
C 1754 2451 1952 2042 2035 1830 
L 2342 2176 
C 2234 2374 1747 3174 1581 3424 
L 1581 3693 
L 2240 3693 
L 2240 4141 
L 1581 4141 
L 1581 5376 
L 1120 5376 
z
" transform="scale(0.015625)"/>
       <path id="NotoSansCJKjp-Regular-20" transform="scale(0.015625)"/>
       <path id="NotoSansCJKjp-Regular-28" d="M 1530 -1254 
L 1888 -1094 
C 1338 -186 1075 902 1075 1990 
C 1075 3072 1338 4154 1888 5069 
L 1530 5235 
C 941 4275 589 3245 589 1990 
C 589 730 941 -301 1530 -1254 
z
" transform="scale(0.015625)"/>
       <path id="NotoSansCJKjp-Regular-6e" d="M 589 0 
L 1178 0 
L 1178 2522 
C 1523 2874 1766 3053 2125 3053 
C 2586 3053 2784 2778 2784 2125 
L 2784 0 
L 3366 0 
L 3366 2202 
C 3366 3085 3034 3565 2304 3565 
C 1830 3565 1466 3302 1139 2970 
L 1126 2970 
L 1069 3475 
L 589 3475 
L 589 0 
z
" transform="scale(0.015625)"/>
       <path id="NotoSansCJKjp-Regular-29" d="M 634 -1254 
C 1222 -301 1574 730 1574 1990 
C 1574 3245 1222 4275 634 5235 
L 269 5069 
C 819 4154 1094 3072 1094 1990 
C 1094 902 819 -186 269 -1094 
L 634 -1254 
z
" transform="scale(0.015625)"/>
      </defs>
      <use xlink:href="#NotoSansCJKjp-Regular-6570"/>
      <use xlink:href="#NotoSansCJKjp-Regular-636e" transform="translate(99.999985 0)"/>
      <use xlink:href="#NotoSansCJKjp-Regular-89c4" transform="translate(199.999969 0)"/>
      <use xlink:href="#NotoSansCJKjp-Regular-6a21" transform="translate(299.999954 0)"/>
      <use xlink:href="#NotoSansCJKjp-Regular-20" transform="translate(399.999939 0)"/>
      <use xlink:href="#NotoSansCJKjp-Regular-28" transform="translate(422.399933 0)"/>
      <use xlink:href="#NotoSansCJKjp-Regular-6e" transform="translate(456.199921 0)"/>
      <use xlink:href="#NotoSansCJKjp-Regular-29" transform="translate(517.199905 0)"/>
     </g>
    </g>
   </g>
   <g id="matplotlib.axis_2">
    <g id="ytick_1">
     <g id="line2d_12">
      <defs>
       <path id="m66e1163772" d="M 0 0 
L -3.5 0 
" style="stroke: #000000; stroke-width: 0.8"/>
      </defs>
      <g>
       <use xlink:href="#m66e1163772" x="56.357054" y="222.728461" style="stroke: #000000; stroke-width: 0.8"/>
      </g>
     </g>
     <g id="text_4">
      <!-- $\mathdefault{10^{-2}}$ -->
      <g transform="translate(25.857054 226.52768) scale(0.1 -0.1)">
       <defs>
        <path id="DejaVuSans-2212" d="M 678 2272 
L 4684 2272 
L 4684 1741 
L 678 1741 
L 678 2272 
z
" transform="scale(0.015625)"/>
        <path id="DejaVuSans-32" d="M 1228 531 
L 3431 531 
L 3431 0 
L 469 0 
L 469 531 
Q 828 903 1448 1529 
Q 2069 2156 2228 2338 
Q 2531 2678 2651 2914 
Q 2772 3150 2772 3378 
Q 2772 3750 2511 3984 
Q 2250 4219 1831 4219 
Q 1534 4219 1204 4116 
Q 875 4013 500 3803 
L 500 4441 
Q 881 4594 1212 4672 
Q 1544 4750 1819 4750 
Q 2544 4750 2975 4387 
Q 3406 4025 3406 3419 
Q 3406 3131 3298 2873 
Q 3191 2616 2906 2266 
Q 2828 2175 2409 1742 
Q 1991 1309 1228 531 
z
" transform="scale(0.015625)"/>
       </defs>
       <use xlink:href="#DejaVuSans-31" transform="translate(0 0.765625)"/>
       <use xlink:href="#DejaVuSans-30" transform="translate(63.623047 0.765625)"/>
       <use xlink:href="#DejaVuSans-2212" transform="translate(128.203125 39.046875) scale(0.7)"/>
       <use xlink:href="#DejaVuSans-32" transform="translate(186.855469 39.046875) scale(0.7)"/>
      </g>
     </g>
    </g>
    <g id="ytick_2">
     <g id="line2d_13">
      <g>
       <use xlink:href="#m66e1163772" x="56.357054" y="44.018451" style="stroke: #000000; stroke-width: 0.8"/>
      </g>
     </g>
     <g id="text_5">
      <!-- $\mathdefault{10^{-1}}$ -->
      <g transform="translate(25.857054 47.817669) scale(0.1 -0.1)">
       <use xlink:href="#DejaVuSans-31" transform="translate(0 0.684375)"/>
       <use xlink:href="#DejaVuSans-30" transform="translate(63.623047 0.684375)"/>
       <use xlink:href="#DejaVuSans-2212" transform="translate(128.203125 38.965625) scale(0.7)"/>
       <use xlink:href="#DejaVuSans-31" transform="translate(186.855469 38.965625) scale(0.7)"/>
      </g>
     </g>
    </g>
    <g id="ytick_3">
     <g id="line2d_14">
      <defs>
       <path id="m2ff7bca605" d="M 0 0 
L -2 0 
" style="stroke: #000000; stroke-width: 0.6"/>
      </defs>
      <g>
       <use xlink:href="#m2ff7bca605" x="56.357054" y="240.04725" style="stroke: #000000; stroke-width: 0.6"/>
      </g>
     </g>
    </g>
    <g id="ytick_4">
     <g id="line2d_15">
      <g>
       <use xlink:href="#m2ff7bca605" x="56.357054" y="230.905783" style="stroke: #000000; stroke-width: 0.6"/>
      </g>
     </g>
    </g>
    <g id="ytick_5">
     <g id="line2d_16">
      <g>
       <use xlink:href="#m2ff7bca605" x="56.357054" y="168.931387" style="stroke: #000000; stroke-width: 0.6"/>
      </g>
     </g>
    </g>
    <g id="ytick_6">
     <g id="line2d_17">
      <g>
       <use xlink:href="#m2ff7bca605" x="56.357054" y="137.462117" style="stroke: #000000; stroke-width: 0.6"/>
      </g>
     </g>
    </g>
    <g id="ytick_7">
     <g id="line2d_18">
      <g>
       <use xlink:href="#m2ff7bca605" x="56.357054" y="115.134314" style="stroke: #000000; stroke-width: 0.6"/>
      </g>
     </g>
    </g>
    <g id="ytick_8">
     <g id="line2d_19">
      <g>
       <use xlink:href="#m2ff7bca605" x="56.357054" y="97.815524" style="stroke: #000000; stroke-width: 0.6"/>
      </g>
     </g>
    </g>
    <g id="ytick_9">
     <g id="line2d_20">
      <g>
       <use xlink:href="#m2ff7bca605" x="56.357054" y="83.665043" style="stroke: #000000; stroke-width: 0.6"/>
      </g>
     </g>
    </g>
    <g id="ytick_10">
     <g id="line2d_21">
      <g>
       <use xlink:href="#m2ff7bca605" x="56.357054" y="71.700981" style="stroke: #000000; stroke-width: 0.6"/>
      </g>
     </g>
    </g>
    <g id="ytick_11">
     <g id="line2d_22">
      <g>
       <use xlink:href="#m2ff7bca605" x="56.357054" y="61.33724" style="stroke: #000000; stroke-width: 0.6"/>
      </g>
     </g>
    </g>
    <g id="ytick_12">
     <g id="line2d_23">
      <g>
       <use xlink:href="#m2ff7bca605" x="56.357054" y="52.195772" style="stroke: #000000; stroke-width: 0.6"/>
      </g>
     </g>
    </g>
    <g id="text_6">
     <!-- 运行时间 (秒) -->
     <g transform="translate(19.566429 163.34775) rotate(-90) scale(0.1 -0.1)">
      <defs>
       <path id="NotoSansCJKjp-Regular-8fd0" d="M 576 4998 
C 960 4787 1408 4448 1619 4198 
L 1958 4525 
C 1741 4774 1280 5094 896 5299 
L 576 4998 
z
M 326 3699 
C 730 3494 1210 3174 1434 2925 
L 1766 3270 
C 1530 3514 1043 3821 640 4013 
L 326 3699 
z
M 2458 5011 
L 2458 4557 
L 5677 4557 
L 5677 5011 
L 2458 5011 
z
M 1606 2400 
L 294 2400 
L 294 1952 
L 1139 1952 
L 1139 749 
C 832 480 493 218 211 19 
L 461 -461 
C 794 -179 1107 96 1402 371 
C 1811 -134 2394 -358 3238 -390 
C 3955 -416 5299 -403 6010 -371 
C 6035 -230 6112 -6 6170 109 
C 5402 58 3942 38 3232 64 
C 2483 96 1920 314 1606 781 
L 1606 2400 
z
M 4506 2490 
C 4749 2195 4998 1843 5216 1498 
L 3149 1338 
C 3392 1837 3667 2496 3885 3059 
L 6144 3059 
L 6144 3514 
L 2042 3514 
L 2042 3059 
L 3322 3059 
C 3155 2490 2893 1792 2662 1299 
L 2093 1261 
L 2170 781 
C 3021 858 4262 966 5453 1082 
C 5555 890 5638 710 5696 557 
L 6118 787 
C 5914 1312 5382 2099 4890 2682 
L 4506 2490 
z
" transform="scale(0.015625)"/>
       <path id="NotoSansCJKjp-Regular-884c" d="M 2784 4992 
L 2784 4531 
L 5933 4531 
L 5933 4992 
L 2784 4992 
z
M 1709 5382 
C 1382 4915 762 4346 224 3981 
C 307 3891 442 3706 506 3597 
C 1082 4006 1741 4634 2170 5190 
L 1709 5382 
z
M 2502 3226 
L 2502 2765 
L 4659 2765 
L 4659 109 
C 4659 6 4614 -26 4493 -32 
C 4378 -38 3942 -38 3488 -19 
C 3558 -160 3629 -358 3648 -493 
C 4275 -493 4640 -493 4858 -422 
C 5069 -339 5146 -192 5146 102 
L 5146 2765 
L 6112 2765 
L 6112 3226 
L 2502 3226 
z
M 1965 4006 
C 1523 3277 819 2534 160 2061 
C 256 1965 429 1754 499 1658 
C 736 1850 986 2080 1229 2330 
L 1229 -531 
L 1702 -531 
L 1702 2854 
C 1971 3174 2214 3507 2419 3840 
L 1965 4006 
z
" transform="scale(0.015625)"/>
       <path id="NotoSansCJKjp-Regular-65f6" d="M 3034 2893 
C 3373 2400 3808 1722 4013 1331 
L 4435 1574 
C 4218 1965 3776 2618 3430 3104 
L 3034 2893 
z
M 2074 2573 
L 2074 1114 
L 979 1114 
L 979 2573 
L 2074 2573 
z
M 2074 3002 
L 979 3002 
L 979 4403 
L 2074 4403 
L 2074 3002 
z
M 518 4838 
L 518 160 
L 979 160 
L 979 678 
L 2522 678 
L 2522 4838 
L 518 4838 
z
M 4890 5344 
L 4890 4096 
L 2816 4096 
L 2816 3622 
L 4890 3622 
L 4890 211 
C 4890 83 4838 38 4710 38 
C 4570 26 4096 26 3597 45 
C 3667 -96 3744 -314 3776 -448 
C 4416 -448 4826 -442 5056 -358 
C 5286 -282 5376 -141 5376 211 
L 5376 3622 
L 6157 3622 
L 6157 4096 
L 5376 4096 
L 5376 5344 
L 4890 5344 
z
" transform="scale(0.015625)"/>
       <path id="NotoSansCJKjp-Regular-95f4" d="M 582 3936 
L 582 -512 
L 1075 -512 
L 1075 3936 
L 582 3936 
z
M 678 5062 
C 973 4781 1306 4378 1453 4122 
L 1850 4378 
C 1696 4646 1350 5024 1050 5293 
L 678 5062 
z
M 2426 1888 
L 3962 1888 
L 3962 1024 
L 2426 1024 
L 2426 1888 
z
M 2426 3142 
L 3962 3142 
L 3962 2291 
L 2426 2291 
L 2426 3142 
z
M 1990 3546 
L 1990 627 
L 4416 627 
L 4416 3546 
L 1990 3546 
z
M 2253 5018 
L 2253 4563 
L 5350 4563 
L 5350 70 
C 5350 -13 5325 -38 5242 -45 
C 5158 -45 4896 -51 4627 -38 
C 4691 -160 4755 -365 4781 -480 
C 5171 -480 5446 -480 5619 -403 
C 5786 -320 5843 -198 5843 70 
L 5843 5018 
L 2253 5018 
z
" transform="scale(0.015625)"/>
       <path id="NotoSansCJKjp-Regular-79d2" d="M 4160 5370 
L 4160 1997 
C 4160 1920 4128 1894 4045 1888 
C 3962 1888 3693 1888 3392 1894 
C 3462 1766 3533 1562 3558 1434 
C 3987 1427 4243 1446 4410 1523 
C 4582 1606 4640 1741 4640 1990 
L 4640 5370 
L 4160 5370 
z
M 3206 4307 
C 3072 3590 2842 2880 2502 2413 
C 2624 2362 2829 2246 2918 2182 
C 3238 2675 3507 3450 3661 4224 
L 3206 4307 
z
M 5037 4205 
C 5370 3629 5664 2848 5760 2342 
L 6202 2490 
C 6093 3002 5792 3763 5446 4346 
L 5037 4205 
z
M 5331 2227 
C 4947 947 4064 243 2496 -70 
C 2598 -186 2714 -365 2765 -506 
C 4429 -109 5370 685 5792 2106 
L 5331 2227 
z
M 2310 5286 
C 1837 5069 992 4883 275 4762 
C 333 4659 397 4499 416 4397 
C 717 4435 1037 4493 1357 4557 
L 1357 3571 
L 314 3571 
L 314 3123 
L 1293 3123 
C 1037 2387 595 1555 179 1101 
C 262 986 378 794 429 659 
C 755 1056 1094 1690 1357 2336 
L 1357 -499 
L 1830 -499 
L 1830 2259 
C 2048 1990 2304 1645 2413 1466 
L 2701 1843 
C 2573 1990 2016 2566 1830 2726 
L 1830 3123 
L 2630 3123 
L 2630 3571 
L 1830 3571 
L 1830 4666 
C 2131 4736 2413 4819 2643 4915 
L 2310 5286 
z
" transform="scale(0.015625)"/>
      </defs>
      <use xlink:href="#NotoSansCJKjp-Regular-8fd0"/>
      <use xlink:href="#NotoSansCJKjp-Regular-884c" transform="translate(99.999985 0)"/>
      <use xlink:href="#NotoSansCJKjp-Regular-65f6" transform="translate(199.999969 0)"/>
      <use xlink:href="#NotoSansCJKjp-Regular-95f4" transform="translate(299.999954 0)"/>
      <use xlink:href="#NotoSansCJKjp-Regular-20" transform="translate(399.999939 0)"/>
      <use xlink:href="#NotoSansCJKjp-Regular-28" transform="translate(422.399933 0)"/>
      <use xlink:href="#NotoSansCJKjp-Regular-79d2" transform="translate(456.199921 0)"/>
      <use xlink:href="#NotoSansCJKjp-Regular-29" transform="translate(556.199905 0)"/>
     </g>
    </g>
   </g>
   <g id="LineCollection_1">
    <path clip-path="url(#pd9057f42d7)" style="fill: none; stroke: #1f77b4; stroke-width: 1.5"/>
    <path clip-path="url(#pd9057f42d7)" style="fill: none; stroke: #1f77b4; stroke-width: 1.5"/>
    <path clip-path="url(#pd9057f42d7)" style="fill: none; stroke: #1f77b4; stroke-width: 1.5"/>
   </g>
   <g id="line2d_24">
    <defs>
     <path id="m896dc05d10" d="M 3 0 
L -3 -0 
" style="stroke: #1f77b4"/>
    </defs>
    <g clip-path="url(#pd9057f42d7)"/>
   </g>
   <g id="line2d_25">
    <g clip-path="url(#pd9057f42d7)"/>
   </g>
   <g id="LineCollection_2">
    <path clip-path="url(#pd9057f42d7)" style="fill: none; stroke: #ff7f0e; stroke-width: 1.5"/>
    <path clip-path="url(#pd9057f42d7)" style="fill: none; stroke: #ff7f0e; stroke-width: 1.5"/>
    <path clip-path="url(#pd9057f42d7)" style="fill: none; stroke: #ff7f0e; stroke-width: 1.5"/>
   </g>
   <g id="line2d_26">
    <defs>
     <path id="ma8266cc9a9" d="M 3 0 
L -3 -0 
" style="stroke: #ff7f0e"/>
    </defs>
    <g clip-path="url(#pd9057f42d7)"/>
   </g>
   <g id="line2d_27">
    <g clip-path="url(#pd9057f42d7)"/>
   </g>
   <g id="line2d_28">
    <path d="M 72.940824 232.297977 
L 231.19021 142.708816 
L 404.61623 42.075491 
" clip-path="url(#pd9057f42d7)" style="fill: none; stroke: #1f77b4; stroke-width: 1.5; stroke-linecap: square"/>
    <defs>
     <path id="m411a22efa8" d="M 0 3 
C 0.795609 3 1.55874 2.683901 2.12132 2.12132 
C 2.683901 1.55874 3 0.795609 3 0 
C 3 -0.795609 2.683901 -1.55874 2.12132 -2.12132 
C 1.55874 -2.683901 0.795609 -3 0 -3 
C -0.795609 -3 -1.55874 -2.683901 -2.12132 -2.12132 
C -2.683901 -1.55874 -3 -0.795609 -3 0 
C -3 0.795609 -2.683901 1.55874 -2.12132 2.12132 
C -1.55874 2.683901 -0.795609 3 0 3 
z
" style="stroke: #1f77b4"/>
    </defs>
    <g clip-path="url(#pd9057f42d7)">
     <use xlink:href="#m411a22efa8" x="72.940824" y="232.297977" style="fill: #1f77b4; stroke: #1f77b4"/>
     <use xlink:href="#m411a22efa8" x="231.19021" y="142.708816" style="fill: #1f77b4; stroke: #1f77b4"/>
     <use xlink:href="#m411a22efa8" x="404.61623" y="42.075491" style="fill: #1f77b4; stroke: #1f77b4"/>
    </g>
   </g>
   <g id="line2d_29">
    <path d="M 72.940824 227.119043 
L 231.19021 146.213592 
L 404.61623 35.397523 
" clip-path="url(#pd9057f42d7)" style="fill: none; stroke: #ff7f0e; stroke-width: 1.5; stroke-linecap: square"/>
    <defs>
     <path id="m93dd2d9589" d="M 0 3 
C 0.795609 3 1.55874 2.683901 2.12132 2.12132 
C 2.683901 1.55874 3 0.795609 3 0 
C 3 -0.795609 2.683901 -1.55874 2.12132 -2.12132 
C 1.55874 -2.683901 0.795609 -3 0 -3 
C -0.795609 -3 -1.55874 -2.683901 -2.12132 -2.12132 
C -2.683901 -1.55874 -3 -0.795609 -3 0 
C -3 0.795609 -2.683901 1.55874 -2.12132 2.12132 
C -1.55874 2.683901 -0.795609 3 0 3 
z
" style="stroke: #ff7f0e"/>
    </defs>
    <g clip-path="url(#pd9057f42d7)">
     <use xlink:href="#m93dd2d9589" x="72.940824" y="227.119043" style="fill: #ff7f0e; stroke: #ff7f0e"/>
     <use xlink:href="#m93dd2d9589" x="231.19021" y="146.213592" style="fill: #ff7f0e; stroke: #ff7f0e"/>
     <use xlink:href="#m93dd2d9589" x="404.61623" y="35.397523" style="fill: #ff7f0e; stroke: #ff7f0e"/>
    </g>
   </g>
   <g id="patch_3">
    <path d="M 56.357054 242.143 
L 56.357054 25.5525 
" style="fill: none; stroke: #000000; stroke-width: 0.8; stroke-linejoin: miter; stroke-linecap: square"/>
   </g>
   <g id="patch_4">
    <path d="M 421.2 242.143 
L 421.2 25.5525 
" style="fill: none; stroke: #000000; stroke-width: 0.8; stroke-linejoin: miter; stroke-linecap: square"/>
   </g>
   <g id="patch_5">
    <path d="M 56.357054 242.143 
L 421.2 242.143 
" style="fill: none; stroke: #000000; stroke-width: 0.8; stroke-linejoin: miter; stroke-linecap: square"/>
   </g>
   <g id="patch_6">
    <path d="M 56.357054 25.5525 
L 421.2 25.5525 
" style="fill: none; stroke: #000000; stroke-width: 0.8; stroke-linejoin: miter; stroke-linecap: square"/>
   </g>
   <g id="text_7">
    <!-- quick_rec 在 -O0 下不同 pivot 策略 -->
    <g transform="translate(160.086339 19.5525) scale(0.1 -0.1)">
     <defs>
      <path id="NotoSansCJKjp-Regular-71" d="M 2790 -1466 
L 3379 -1466 
L 3379 3475 
L 2912 3475 
L 2854 3149 
L 2842 3149 
C 2534 3418 2253 3565 1843 3565 
C 1050 3565 339 2861 339 1734 
C 339 576 902 -83 1773 -83 
C 2176 -83 2541 128 2822 403 
L 2790 -230 
L 2790 -1466 
z
M 1901 410 
C 1293 410 941 902 941 1741 
C 941 2534 1389 3072 1946 3072 
C 2234 3072 2502 2970 2790 2707 
L 2790 883 
C 2502 563 2221 410 1901 410 
z
" transform="scale(0.015625)"/>
      <path id="NotoSansCJKjp-Regular-75" d="M 1606 -83 
C 2080 -83 2426 166 2752 544 
L 2771 544 
L 2816 0 
L 3302 0 
L 3302 3475 
L 2720 3475 
L 2720 1011 
C 2387 602 2138 422 1779 422 
C 1318 422 1126 698 1126 1344 
L 1126 3475 
L 538 3475 
L 538 1274 
C 538 384 870 -83 1606 -83 
z
" transform="scale(0.015625)"/>
      <path id="NotoSansCJKjp-Regular-69" d="M 589 0 
L 1178 0 
L 1178 3475 
L 589 3475 
L 589 0 
z
M 883 4192 
C 1114 4192 1274 4346 1274 4582 
C 1274 4806 1114 4960 883 4960 
C 653 4960 499 4806 499 4582 
C 499 4346 653 4192 883 4192 
z
" transform="scale(0.015625)"/>
      <path id="NotoSansCJKjp-Regular-63" d="M 1958 -83 
C 2374 -83 2771 83 3085 352 
L 2829 749 
C 2611 557 2330 403 2010 403 
C 1370 403 934 934 934 1734 
C 934 2534 1395 3072 2029 3072 
C 2298 3072 2522 2950 2720 2771 
L 3014 3155 
C 2771 3373 2458 3565 2003 3565 
C 1107 3565 333 2893 333 1734 
C 333 582 1037 -83 1958 -83 
z
" transform="scale(0.015625)"/>
      <path id="NotoSansCJKjp-Regular-6b" d="M 589 0 
L 1165 0 
L 1165 915 
L 1818 1677 
L 2835 0 
L 3469 0 
L 2157 2074 
L 3315 3475 
L 2662 3475 
L 1190 1645 
L 1165 1645 
L 1165 5094 
L 589 5094 
L 589 0 
z
" transform="scale(0.015625)"/>
      <path id="NotoSansCJKjp-Regular-5f" d="M 83 -896 
L 3488 -896 
L 3488 -512 
L 83 -512 
L 83 -896 
z
" transform="scale(0.015625)"/>
      <path id="NotoSansCJKjp-Regular-72" d="M 589 0 
L 1178 0 
L 1178 2234 
C 1408 2822 1760 3040 2048 3040 
C 2195 3040 2272 3021 2387 2982 
L 2496 3488 
C 2387 3546 2278 3565 2125 3565 
C 1741 3565 1382 3283 1139 2842 
L 1126 2842 
L 1069 3475 
L 589 3475 
L 589 0 
z
" transform="scale(0.015625)"/>
      <path id="NotoSansCJKjp-Regular-65" d="M 1997 -83 
C 2464 -83 2835 70 3136 269 
L 2931 659 
C 2669 486 2400 384 2061 384 
C 1402 384 947 858 909 1600 
L 3251 1600 
C 3264 1690 3277 1805 3277 1933 
C 3277 2925 2778 3565 1888 3565 
C 1094 3565 333 2867 333 1734 
C 333 589 1069 -83 1997 -83 
z
M 902 2016 
C 973 2707 1408 3098 1901 3098 
C 2445 3098 2765 2720 2765 2016 
L 902 2016 
z
" transform="scale(0.015625)"/>
      <path id="NotoSansCJKjp-Regular-5728" d="M 2502 5376 
C 2413 5050 2298 4710 2163 4384 
L 403 4384 
L 403 3923 
L 1952 3923 
C 1542 3104 979 2342 243 1830 
C 320 1722 442 1517 493 1389 
C 762 1581 1011 1798 1235 2035 
L 1235 -486 
L 1715 -486 
L 1715 2605 
C 2016 3014 2278 3462 2496 3923 
L 6010 3923 
L 6010 4384 
L 2694 4384 
C 2810 4672 2912 4966 3002 5254 
L 2502 5376 
z
M 3827 3590 
L 3827 2355 
L 2387 2355 
L 2387 1907 
L 3827 1907 
L 3827 90 
L 2131 90 
L 2131 -358 
L 6003 -358 
L 6003 90 
L 4307 90 
L 4307 1907 
L 5760 1907 
L 5760 2355 
L 4307 2355 
L 4307 3590 
L 3827 3590 
z
" transform="scale(0.015625)"/>
      <path id="NotoSansCJKjp-Regular-2d" d="M 294 1568 
L 1933 1568 
L 1933 2016 
L 294 2016 
L 294 1568 
z
" transform="scale(0.015625)"/>
      <path id="NotoSansCJKjp-Regular-4f" d="M 2374 -83 
C 3552 -83 4378 858 4378 2362 
C 4378 3866 3552 4774 2374 4774 
C 1197 4774 371 3866 371 2362 
C 371 858 1197 -83 2374 -83 
z
M 2374 435 
C 1530 435 979 1190 979 2362 
C 979 3533 1530 4256 2374 4256 
C 3219 4256 3770 3533 3770 2362 
C 3770 1190 3219 435 2374 435 
z
" transform="scale(0.015625)"/>
      <path id="NotoSansCJKjp-Regular-30" d="M 1779 -83 
C 2669 -83 3238 723 3238 2362 
C 3238 3987 2669 4774 1779 4774 
C 883 4774 320 3987 320 2362 
C 320 723 883 -83 1779 -83 
z
M 1779 390 
C 1248 390 883 986 883 2362 
C 883 3731 1248 4314 1779 4314 
C 2310 4314 2675 3731 2675 2362 
C 2675 986 2310 390 1779 390 
z
" transform="scale(0.015625)"/>
      <path id="NotoSansCJKjp-Regular-4e0b" d="M 352 4902 
L 352 4422 
L 2822 4422 
L 2822 -506 
L 3328 -506 
L 3328 2886 
C 4064 2490 4922 1958 5370 1600 
L 5709 2035 
C 5197 2426 4179 3002 3418 3373 
L 3328 3270 
L 3328 4422 
L 6054 4422 
L 6054 4902 
L 352 4902 
z
" transform="scale(0.015625)"/>
      <path id="NotoSansCJKjp-Regular-4e0d" d="M 3578 3059 
C 4339 2547 5299 1792 5754 1299 
L 6144 1670 
C 5664 2163 4691 2880 3936 3366 
L 3578 3059 
z
M 442 4928 
L 442 4435 
L 3290 4435 
C 2656 3341 1555 2259 282 1632 
C 384 1523 531 1331 608 1210 
C 1498 1677 2291 2336 2938 3078 
L 2938 -499 
L 3456 -499 
L 3456 3738 
C 3622 3962 3770 4198 3904 4435 
L 5958 4435 
L 5958 4928 
L 442 4928 
z
" transform="scale(0.015625)"/>
      <path id="NotoSansCJKjp-Regular-540c" d="M 1587 3917 
L 1587 3501 
L 4838 3501 
L 4838 3917 
L 1587 3917 
z
M 2355 2419 
L 4045 2419 
L 4045 1203 
L 2355 1203 
L 2355 2419 
z
M 1914 2829 
L 1914 326 
L 2355 326 
L 2355 794 
L 4493 794 
L 4493 2829 
L 1914 2829 
z
M 563 5043 
L 563 -525 
L 1030 -525 
L 1030 4589 
L 5376 4589 
L 5376 102 
C 5376 -13 5338 -51 5222 -58 
C 5114 -58 4742 -64 4339 -51 
C 4416 -173 4486 -390 4512 -518 
C 5062 -518 5389 -506 5581 -429 
C 5779 -352 5850 -198 5850 96 
L 5850 5043 
L 563 5043 
z
" transform="scale(0.015625)"/>
      <path id="NotoSansCJKjp-Regular-70" d="M 589 -1466 
L 1178 -1466 
L 1178 -288 
L 1158 320 
C 1472 58 1805 -83 2118 -83 
C 2912 -83 3629 602 3629 1792 
C 3629 2867 3142 3565 2246 3565 
C 1843 3565 1453 3334 1139 3072 
L 1126 3072 
L 1069 3475 
L 589 3475 
L 589 -1466 
z
M 2022 410 
C 1792 410 1485 499 1178 768 
L 1178 2598 
C 1510 2906 1811 3072 2099 3072 
C 2765 3072 3021 2560 3021 1786 
C 3021 928 2598 410 2022 410 
z
" transform="scale(0.015625)"/>
      <path id="NotoSansCJKjp-Regular-76" d="M 1338 0 
L 2022 0 
L 3251 3475 
L 2675 3475 
L 2016 1498 
C 1914 1158 1798 806 1696 474 
L 1664 474 
C 1562 806 1453 1158 1344 1498 
L 691 3475 
L 83 3475 
L 1338 0 
z
" transform="scale(0.015625)"/>
      <path id="NotoSansCJKjp-Regular-6f" d="M 1939 -83 
C 2790 -83 3546 582 3546 1734 
C 3546 2893 2790 3565 1939 3565 
C 1088 3565 333 2893 333 1734 
C 333 582 1088 -83 1939 -83 
z
M 1939 403 
C 1338 403 934 934 934 1734 
C 934 2534 1338 3072 1939 3072 
C 2541 3072 2950 2534 2950 1734 
C 2950 934 2541 403 1939 403 
z
" transform="scale(0.015625)"/>
      <path id="NotoSansCJKjp-Regular-74" d="M 1677 -83 
C 1894 -83 2125 -19 2323 45 
L 2208 486 
C 2093 435 1939 390 1811 390 
C 1408 390 1274 634 1274 1056 
L 1274 3002 
L 2221 3002 
L 2221 3475 
L 1274 3475 
L 1274 4454 
L 787 4454 
L 723 3475 
L 173 3443 
L 173 3002 
L 691 3002 
L 691 1075 
C 691 378 941 -83 1677 -83 
z
" transform="scale(0.015625)"/>
      <path id="NotoSansCJKjp-Regular-7b56" d="M 3699 5402 
C 3494 4826 3117 4288 2669 3936 
C 2752 3891 2880 3808 2976 3738 
L 2976 3514 
L 435 3514 
L 435 3091 
L 2976 3091 
L 2976 2592 
L 896 2592 
L 896 934 
L 1395 934 
L 1395 2176 
L 2976 2176 
L 2976 1619 
C 2406 915 1338 346 275 96 
C 384 0 512 -186 582 -307 
C 1459 -58 2349 422 2976 1043 
L 2976 -512 
L 3488 -512 
L 3488 1030 
C 4045 512 4890 -13 5888 -275 
C 5958 -154 6099 38 6195 141 
C 5018 403 4000 998 3488 1568 
L 3488 2176 
L 5088 2176 
L 5088 1402 
C 5088 1338 5069 1318 4998 1318 
C 4922 1312 4678 1312 4416 1318 
C 4474 1216 4550 1062 4576 941 
C 4941 941 5197 941 5363 1005 
C 5536 1075 5581 1178 5581 1402 
L 5581 2592 
L 3488 2592 
L 3488 3091 
L 5946 3091 
L 5946 3514 
L 3488 3514 
L 3488 3923 
L 3347 3923 
C 3475 4070 3603 4230 3718 4403 
L 4198 4403 
C 4365 4154 4518 3866 4582 3661 
L 5011 3814 
C 4954 3974 4832 4198 4698 4403 
L 6029 4403 
L 6029 4813 
L 3962 4813 
C 4038 4966 4109 5126 4173 5286 
L 3699 5402 
z
M 1222 5402 
C 1005 4838 627 4288 211 3923 
C 326 3859 525 3725 614 3654 
C 819 3859 1024 4115 1216 4403 
L 1523 4403 
C 1664 4147 1798 3846 1862 3648 
L 2285 3808 
C 2234 3968 2125 4192 2010 4403 
L 3104 4403 
L 3104 4813 
L 1453 4813 
C 1536 4966 1613 5120 1677 5280 
L 1222 5402 
z
" transform="scale(0.015625)"/>
      <path id="NotoSansCJKjp-Regular-7565" d="M 3904 5402 
C 3622 4710 3155 4058 2611 3622 
L 2611 4998 
L 486 4998 
L 486 250 
L 864 250 
L 864 826 
L 2611 826 
L 2611 1805 
C 2675 1722 2739 1626 2778 1555 
L 3085 1696 
L 3085 -480 
L 3539 -480 
L 3539 -262 
L 5318 -262 
L 5318 -467 
L 5786 -467 
L 5786 1722 
L 5997 1626 
C 6067 1747 6202 1933 6304 2029 
C 5728 2234 5216 2560 4794 2925 
C 5242 3386 5619 3936 5862 4557 
L 5549 4717 
L 5466 4698 
L 4077 4698 
C 4179 4883 4275 5075 4358 5274 
L 3904 5402 
z
M 864 4576 
L 1370 4576 
L 1370 3187 
L 864 3187 
L 864 4576 
z
M 864 1248 
L 864 2778 
L 1370 2778 
L 1370 1248 
L 864 1248 
z
M 2227 2778 
L 2227 1248 
L 1702 1248 
L 1702 2778 
L 2227 2778 
z
M 2227 3187 
L 1702 3187 
L 1702 4576 
L 2227 4576 
L 2227 3187 
z
M 2611 1971 
L 2611 3437 
C 2701 3360 2803 3264 2854 3200 
C 3072 3379 3283 3590 3482 3834 
C 3654 3539 3885 3232 4154 2938 
C 3680 2522 3136 2189 2611 1971 
z
M 3539 166 
L 3539 1402 
L 5318 1402 
L 5318 166 
L 3539 166 
z
M 5235 4282 
C 5037 3904 4774 3552 4467 3232 
C 4166 3546 3923 3872 3750 4186 
L 3814 4282 
L 5235 4282 
z
M 3347 1830 
C 3738 2042 4122 2310 4474 2618 
C 4787 2323 5158 2048 5568 1830 
L 3347 1830 
z
" transform="scale(0.015625)"/>
     </defs>
     <use xlink:href="#NotoSansCJKjp-Regular-71"/>
     <use xlink:href="#NotoSansCJKjp-Regular-75" transform="translate(61.999985 0)"/>
     <use xlink:href="#NotoSansCJKjp-Regular-69" transform="translate(122.699982 0)"/>
     <use xlink:href="#NotoSansCJKjp-Regular-63" transform="translate(150.199966 0)"/>
     <use xlink:href="#NotoSansCJKjp-Regular-6b" transform="translate(201.199951 0)"/>
     <use xlink:href="#NotoSansCJKjp-Regular-5f" transform="translate(256.399948 0)"/>
     <use xlink:href="#NotoSansCJKjp-Regular-72" transform="translate(312.299942 0)"/>
     <use xlink:href="#NotoSansCJKjp-Regular-65" transform="translate(351.09993 0)"/>
     <use xlink:href="#NotoSansCJKjp-Regular-63" transform="translate(406.499924 0)"/>
     <use xlink:href="#NotoSansCJKjp-Regular-20" transform="translate(457.499908 0)"/>
     <use xlink:href="#NotoSansCJKjp-Regular-5728" transform="translate(479.899902 0)"/>
     <use xlink:href="#NotoSansCJKjp-Regular-20" transform="translate(579.899887 0)"/>
     <use xlink:href="#NotoSansCJKjp-Regular-2d" transform="translate(602.299881 0)"/>
     <use xlink:href="#NotoSansCJKjp-Regular-4f" transform="translate(636.999878 0)"/>
     <use xlink:href="#NotoSansCJKjp-Regular-30" transform="translate(711.19986 0)"/>
     <use xlink:href="#NotoSansCJKjp-Regular-20" transform="translate(766.699844 0)"/>
     <use xlink:href="#NotoSansCJKjp-Regular-4e0b" transform="translate(789.099838 0)"/>
     <use xlink:href="#NotoSansCJKjp-Regular-4e0d" transform="translate(889.099823 0)"/>
     <use xlink:href="#NotoSansCJKjp-Regular-540c" transform="translate(989.099808 0)"/>
     <use xlink:href="#NotoSansCJKjp-Regular-20" transform="translate(1089.099792 0)"/>
     <use xlink:href="#NotoSansCJKjp-Regular-70" transform="translate(1111.499786 0)"/>
     <use xlink:href="#NotoSansCJKjp-Regular-69" transform="translate(1173.499771 0)"/>
     <use xlink:href="#NotoSansCJKjp-Regular-76" transform="translate(1200.999756 0)"/>
     <use xlink:href="#NotoSansCJKjp-Regular-6f" transform="translate(1253.099747 0)"/>
     <use xlink:href="#NotoSansCJKjp-Regular-74" transform="translate(1313.699738 0)"/>
     <use xlink:href="#NotoSansCJKjp-Regular-20" transform="translate(1351.399734 0)"/>
     <use xlink:href="#NotoSansCJKjp-Regular-7b56" transform="translate(1373.799728 0)"/>
     <use xlink:href="#NotoSansCJKjp-Regular-7565" transform="translate(1473.799713 0)"/>
    </g>
   </g>
   <g id="legend_1">
    <g id="patch_7">
     <path d="M 63.357054 64.0525 
L 117.166429 64.0525 
Q 119.166429 64.0525 119.166429 62.0525 
L 119.166429 32.5525 
Q 119.166429 30.5525 117.166429 30.5525 
L 63.357054 30.5525 
Q 61.357054 30.5525 61.357054 32.5525 
L 61.357054 62.0525 
Q 61.357054 64.0525 63.357054 64.0525 
z
" style="fill: #ffffff; opacity: 0.8; stroke: #cccccc; stroke-linejoin: miter"/>
    </g>
    <g id="LineCollection_3">
     <path d="M 75.357054 44.011875 
L 75.357054 34.011875 
" style="fill: none; stroke: #1f77b4; stroke-width: 1.5"/>
    </g>
    <g id="line2d_30">
     <g>
      <use xlink:href="#m896dc05d10" x="75.357054" y="44.011875" style="fill: #1f77b4; stroke: #1f77b4"/>
     </g>
    </g>
    <g id="line2d_31">
     <g>
      <use xlink:href="#m896dc05d10" x="75.357054" y="34.011875" style="fill: #1f77b4; stroke: #1f77b4"/>
     </g>
    </g>
    <g id="line2d_32">
     <path d="M 65.357054 39.011875 
L 85.357054 39.011875 
" style="fill: none; stroke: #1f77b4; stroke-width: 1.5; stroke-linecap: square"/>
    </g>
    <g id="line2d_33">
     <g>
      <use xlink:href="#m411a22efa8" x="75.357054" y="39.011875" style="fill: #1f77b4; stroke: #1f77b4"/>
     </g>
    </g>
    <g id="text_8">
     <!-- med -->
     <g transform="translate(93.357054 42.511875) scale(0.1 -0.1)">
      <defs>
       <path id="NotoSansCJKjp-Regular-6d" d="M 589 0 
L 1178 0 
L 1178 2522 
C 1491 2880 1786 3053 2048 3053 
C 2490 3053 2694 2778 2694 2125 
L 2694 0 
L 3277 0 
L 3277 2522 
C 3603 2880 3885 3053 4154 3053 
C 4595 3053 4800 2778 4800 2125 
L 4800 0 
L 5382 0 
L 5382 2202 
C 5382 3085 5043 3565 4333 3565 
C 3904 3565 3546 3290 3181 2899 
C 3040 3309 2758 3565 2221 3565 
C 1805 3565 1446 3302 1139 2970 
L 1126 2970 
L 1069 3475 
L 589 3475 
L 589 0 
z
" transform="scale(0.015625)"/>
       <path id="NotoSansCJKjp-Regular-64" d="M 1773 -83 
C 2189 -83 2560 141 2829 410 
L 2848 410 
L 2899 0 
L 3379 0 
L 3379 5094 
L 2790 5094 
L 2790 3757 
L 2822 3162 
C 2515 3411 2253 3565 1843 3565 
C 1050 3565 339 2861 339 1734 
C 339 576 902 -83 1773 -83 
z
M 1901 410 
C 1293 410 941 902 941 1741 
C 941 2534 1389 3072 1946 3072 
C 2234 3072 2502 2970 2790 2707 
L 2790 883 
C 2502 563 2221 410 1901 410 
z
" transform="scale(0.015625)"/>
      </defs>
      <use xlink:href="#NotoSansCJKjp-Regular-6d"/>
      <use xlink:href="#NotoSansCJKjp-Regular-65" transform="translate(92.599991 0)"/>
      <use xlink:href="#NotoSansCJKjp-Regular-64" transform="translate(147.999985 0)"/>
     </g>
    </g>
    <g id="LineCollection_4">
     <path d="M 75.357054 59.261875 
L 75.357054 49.261875 
" style="fill: none; stroke: #ff7f0e; stroke-width: 1.5"/>
    </g>
    <g id="line2d_34">
     <g>
      <use xlink:href="#ma8266cc9a9" x="75.357054" y="59.261875" style="fill: #ff7f0e; stroke: #ff7f0e"/>
     </g>
    </g>
    <g id="line2d_35">
     <g>
      <use xlink:href="#ma8266cc9a9" x="75.357054" y="49.261875" style="fill: #ff7f0e; stroke: #ff7f0e"/>
     </g>
    </g>
    <g id="line2d_36">
     <path d="M 65.357054 54.261875 
L 85.357054 54.261875 
" style="fill: none; stroke: #ff7f0e; stroke-width: 1.5; stroke-linecap: square"/>
    </g>
    <g id="line2d_37">
     <g>
      <use xlink:href="#m93dd2d9589" x="75.357054" y="54.261875" style="fill: #ff7f0e; stroke: #ff7f0e"/>
     </g>
    </g>
    <g id="text_9">
     <!-- rand -->
     <g transform="translate(93.357054 57.761875) scale(0.1 -0.1)">
      <defs>
       <path id="NotoSansCJKjp-Regular-61" d="M 1389 -83 
C 1818 -83 2208 141 2541 416 
L 2560 416 
L 2611 0 
L 3091 0 
L 3091 2138 
C 3091 3002 2739 3565 1888 3565 
C 1325 3565 838 3315 525 3110 
L 749 2707 
C 1024 2893 1389 3078 1792 3078 
C 2362 3078 2509 2650 2509 2202 
C 1030 2035 378 1658 378 902 
C 378 275 806 -83 1389 -83 
z
M 1555 390 
C 1210 390 941 544 941 941 
C 941 1389 1338 1677 2509 1811 
L 2509 845 
C 2170 544 1888 390 1555 390 
z
" transform="scale(0.015625)"/>
      </defs>
      <use xlink:href="#NotoSansCJKjp-Regular-72"/>
      <use xlink:href="#NotoSansCJKjp-Regular-61" transform="translate(38.799988 0)"/>
      <use xlink:href="#NotoSansCJKjp-Regular-6e" transform="translate(95.099976 0)"/>
      <use xlink:href="#NotoSansCJKjp-Regular-64" transform="translate(156.09996 0)"/>
     </g>
    </g>
   </g>
  </g>
 </g>
 <defs>
  <clipPath id="pd9057f42d7">
   <rect x="56.357054" y="25.5525" width="364.842946" height="216.5905"/>
  </clipPath>
 </defs>
</svg>
